<?xml version="1.0" standalone="no"?>
<!DOCTYPE svg PUBLIC "-//W3C//DTD SVG 20010904//EN"
 "http://www.w3.org/TR/2001/REC-SVG-20010904/DTD/svg10.dtd">
<svg version="1.0" xmlns="http://www.w3.org/2000/svg"
 width="405.000000pt" height="170.000000pt" viewBox="0 0 405.000000 170.000000"
 preserveAspectRatio="xMidYMid meet">

<g transform="translate(0.000000,170.000000) scale(0.100000,-0.100000)"
fill="#000000" stroke="none">
<path d="M2894 1359 c-25 -9 -34 -36 -23 -67 7 -17 16 -22 44 -22 29 0 37 5
45 26 18 46 -19 81 -66 63z"/>
<path d="M2530 1120 l0 -240 40 0 39 0 3 74 3 74 64 -74 63 -74 55 0 55 0 -80
88 -81 88 70 80 69 79 -50 3 c-46 3 -53 0 -78 -30 -15 -18 -42 -49 -59 -68
l-32 -35 -1 138 0 137 -40 0 -40 0 0 -240z"/>
<path d="M3674 1309 c-25 -9 -34 -36 -23 -67 12 -33 75 -31 90 2 20 44 -20 83
-67 65z"/>
<path d="M1280 1266 c0 -44 -1 -46 -30 -46 -28 0 -30 -2 -30 -40 0 -38 2 -40
30 -40 l30 0 0 -92 c0 -73 4 -100 19 -124 25 -41 69 -58 126 -50 49 8 50 9 35
52 -9 27 -14 29 -45 26 -30 -4 -36 -1 -45 23 -5 14 -10 58 -10 96 l0 69 50 0
50 0 0 39 0 40 -47 3 -48 3 -1 40 c-1 40 -1 40 -42 43 l-42 3 0 -45z"/>
<path d="M272 1277 c-22 -23 -22 -28 -22 -374 l0 -352 26 -20 c26 -20 38 -21
374 -21 l347 0 21 23 c22 23 22 28 22 373 l0 351 -23 21 c-23 22 -28 22 -373
22 l-351 0 -21 -23z m439 -208 c66 -23 90 -63 153 -254 32 -97 55 -179 52
-182 -7 -7 -312 95 -356 119 -119 65 -111 252 13 309 48 21 90 24 138 8z"/>
<path d="M625 980 c-59 -23 -76 -91 -34 -136 20 -22 30 -25 64 -21 48 7 75 36
75 81 0 52 -60 95 -105 76z"/>
<path d="M1627 1211 c-29 -15 -37 -16 -37 -5 0 10 -12 14 -40 14 l-40 0 0
-170 0 -170 39 0 39 0 4 111 c3 102 5 112 27 130 26 21 90 26 108 8 8 -8 17 0
33 30 l21 42 -35 14 c-47 20 -74 19 -119 -4z"/>
<path d="M1887 1216 c-74 -27 -107 -80 -107 -173 0 -71 29 -128 80 -154 47
-26 125 -25 168 1 39 24 42 24 42 5 0 -11 11 -15 40 -15 l40 0 0 170 0 170
-39 0 c-32 0 -41 -4 -46 -21 -4 -13 -10 -17 -14 -11 -9 16 -76 42 -103 42 -13
-1 -40 -7 -61 -14z m144 -95 c68 -69 13 -188 -81 -174 -65 9 -100 69 -81 134
21 71 109 93 162 40z"/>
<path d="M2305 1215 c-137 -48 -153 -259 -25 -326 48 -26 144 -26 188 1 38 24
39 30 8 59 -20 19 -28 21 -44 12 -39 -21 -91 -13 -123 18 -77 78 8 205 106
158 32 -15 33 -15 59 12 26 27 26 28 8 45 -40 36 -111 44 -177 21z"/>
<path d="M3494 1211 c-59 -27 -88 -72 -92 -146 -6 -107 48 -168 158 -181 91
-10 129 -65 80 -114 -43 -43 -111 -35 -145 18 -16 26 -27 31 -57 32 -33 0 -38
-3 -38 -24 0 -33 39 -86 80 -110 25 -15 51 -21 95 -20 109 1 165 53 165 152 0
46 -4 58 -29 82 l-28 29 22 21 c34 32 49 97 36 148 -30 110 -141 161 -247 113z
m127 -74 c24 -18 39 -52 39 -87 0 -37 -47 -90 -79 -90 -90 0 -134 115 -64 170
29 22 79 26 104 7z"/>
<path d="M2870 1050 l0 -170 45 0 45 0 0 170 0 170 -45 0 -45 0 0 -170z"/>
<path d="M3020 1050 l0 -170 40 0 40 0 0 91 c0 111 16 153 65 169 27 9 40 8
63 -4 16 -8 32 -23 36 -31 3 -9 6 -64 6 -121 l0 -104 45 0 45 0 0 108 c0 120
-17 172 -65 210 -37 30 -115 30 -161 1 l-34 -21 0 21 c0 18 -6 21 -40 21 l-40
0 0 -170z"/>
<path d="M1710 660 c0 -127 2 -150 15 -150 13 0 15 23 15 150 0 127 -2 150
-15 150 -13 0 -15 -23 -15 -150z"/>
<path d="M2160 786 c0 -15 24 -28 34 -19 13 14 5 33 -14 33 -11 0 -20 -6 -20
-14z"/>
<path d="M2040 750 c0 -23 -4 -30 -20 -30 -11 0 -20 -4 -20 -10 0 -5 9 -10 20
-10 18 0 20 -7 20 -76 0 -97 9 -114 60 -114 28 0 40 4 40 14 0 9 -11 13 -32
12 l-33 -1 -3 83 -3 82 36 0 c19 0 35 5 35 10 0 6 -16 10 -35 10 -32 0 -35 2
-35 30 0 20 -5 30 -15 30 -10 0 -15 -10 -15 -30z"/>
<path d="M1323 718 c-69 -18 -66 -89 4 -107 21 -5 47 -11 57 -13 10 -2 24 -11
30 -21 9 -15 7 -21 -8 -33 -28 -20 -69 -17 -99 6 -16 13 -28 17 -32 10 -19
-31 63 -64 120 -49 73 21 64 102 -12 114 -59 10 -85 23 -81 42 5 26 52 39 90
25 19 -7 36 -8 41 -3 20 20 -62 42 -110 29z"/>
<path d="M1499 691 c-24 -24 -29 -38 -29 -76 0 -66 39 -105 105 -105 66 0 105
39 105 105 0 66 -39 105 -105 105 -38 0 -52 -5 -76 -29z m125 -12 c21 -16 26
-29 26 -63 0 -49 -19 -72 -67 -82 -23 -4 -36 0 -58 19 -40 34 -41 90 -1 123
33 29 65 30 100 3z"/>
<path d="M1780 650 c0 -107 27 -144 102 -142 15 0 36 6 47 12 14 7 21 7 21 0
0 -5 5 -10 10 -10 6 0 10 42 10 105 0 121 -16 142 -22 29 -3 -65 -7 -79 -27
-95 -30 -25 -66 -24 -91 1 -16 16 -20 33 -20 95 0 60 -3 75 -15 75 -12 0 -15
-14 -15 -70z"/>
<path d="M2170 615 c0 -63 4 -105 10 -105 6 0 10 42 10 105 0 63 -4 105 -10
105 -6 0 -10 -42 -10 -105z"/>
<path d="M2267 696 c-48 -44 -45 -136 7 -171 27 -19 106 -19 133 0 27 19 46
76 38 114 -3 16 -18 41 -32 55 -36 36 -108 37 -146 2z m106 -8 c69 -37 58
-135 -17 -154 -28 -7 -81 18 -90 41 -17 46 -2 91 39 113 26 15 41 15 68 0z"/>
<path d="M2480 615 c0 -87 3 -105 15 -105 12 0 15 15 15 74 0 54 4 79 16 90
25 25 61 30 89 12 23 -15 25 -22 25 -96 0 -64 3 -80 15 -80 12 0 15 16 15 80
0 73 -3 83 -25 105 -18 19 -35 25 -68 25 -23 0 -48 -5 -55 -12 -9 -9 -12 -9
-12 0 0 7 -7 12 -15 12 -12 0 -15 -18 -15 -105z"/>
<path d="M2720 700 c-40 -40 -16 -77 60 -94 63 -14 86 -39 56 -62 -28 -20 -69
-17 -99 6 -28 22 -48 10 -27 -15 35 -42 141 -35 162 10 18 40 -10 70 -79 86
-46 11 -58 18 -58 34 0 28 46 43 87 27 37 -14 59 -5 33 15 -29 21 -111 17
-135 -7z"/>
</g>
</svg>
