<?xml version="1.0" standalone="no"?>
<!DOCTYPE svg PUBLIC "-//W3C//DTD SVG 20010904//EN"
 "http://www.w3.org/TR/2001/REC-SVG-20010904/DTD/svg10.dtd">
<svg version="1.0" xmlns="http://www.w3.org/2000/svg"
 width="6137.000000pt" height="1000.000000pt" viewBox="0 0 6137.000000 1000.000000"
 preserveAspectRatio="xMidYMid meet">
<metadata>
Created by potrace 1.16, written by Peter Selinger 2001-2019
</metadata>
<g transform="translate(0.000000,1000.000000) scale(0.100000,-0.100000)"
fill="#000000" stroke="none">
<path d="M28706 9803 c-6 -7 -102 -9 -556 -14 -351 -4 -355 -4 -392 -27 -63
-40 -62 -89 2 -122 21 -11 41 -23 43 -27 3 -5 15 -64 27 -133 23 -135 34 -161
79 -185 19 -9 32 -26 36 -46 7 -32 8 -39 19 -134 12 -105 17 -118 66 -170 28
-29 58 -74 70 -105 12 -30 30 -65 41 -76 13 -14 24 -45 29 -85 5 -38 18 -75
31 -93 13 -17 26 -53 31 -80 4 -30 20 -67 38 -92 27 -38 30 -50 30 -117 0 -62
4 -80 24 -110 19 -28 24 -44 19 -70 -4 -29 0 -40 30 -73 19 -22 47 -68 62
-104 15 -36 35 -72 45 -80 24 -19 40 -62 40 -104 0 -22 11 -48 35 -79 19 -25
39 -67 45 -93 6 -27 20 -63 31 -81 15 -24 20 -52 22 -117 2 -81 3 -86 35 -118
23 -24 32 -43 32 -66 0 -32 36 -82 58 -82 12 0 42 -73 42 -101 0 -11 9 -37 20
-59 11 -22 20 -58 20 -80 0 -32 6 -47 28 -66 104 -92 102 -90 102 -137 0 -37
6 -53 35 -87 39 -47 40 -50 54 -170 15 -123 26 -154 66 -181 41 -29 51 -49 60
-125 4 -32 14 -74 21 -93 8 -18 14 -46 14 -61 0 -21 13 -39 54 -73 41 -36 56
-56 64 -89 6 -24 23 -65 37 -91 16 -31 25 -64 25 -94 0 -29 8 -58 21 -80 12
-19 25 -63 29 -101 8 -60 12 -70 44 -95 35 -28 36 -31 36 -96 0 -59 5 -78 45
-159 29 -61 52 -96 68 -103 25 -11 87 -109 87 -137 0 -28 38 -81 62 -87 21 -4
118 -9 418 -19 187 -6 1047 -6 1063 0 8 3 36 -2 61 -10 50 -17 80 -11 107 20
24 30 76 136 84 172 4 19 21 49 38 69 44 50 87 164 94 248 5 64 9 72 39 98 22
19 34 37 34 54 0 14 16 61 35 106 22 49 35 97 35 122 0 33 6 49 29 72 23 24
30 43 36 93 7 56 11 66 51 103 35 33 44 48 44 76 0 18 9 48 20 66 13 21 22 59
26 108 6 69 10 79 41 109 40 39 93 190 93 267 0 43 4 51 34 74 29 22 34 34 40
83 6 50 12 63 56 111 28 30 52 67 55 81 3 15 10 48 16 73 5 25 14 74 19 109 7
52 15 70 43 99 19 20 37 51 41 70 4 20 21 48 45 71 34 33 40 46 46 96 3 33 15
84 26 114 11 30 24 73 30 95 12 50 28 84 52 112 24 27 66 174 67 231 0 44 25
112 40 112 13 0 50 65 50 87 0 11 14 32 30 48 34 33 48 75 104 318 7 32 22 70
34 85 51 64 82 166 82 272 0 50 4 61 26 81 14 13 34 32 44 41 11 9 24 34 29
56 6 21 20 47 32 58 35 32 47 66 73 203 20 113 30 141 65 201 23 38 44 82 47
99 3 16 19 42 35 57 34 32 37 54 10 78 -31 29 -116 34 -416 26 -159 -4 -294
-5 -298 -3 -5 3 -164 7 -355 9 -191 2 -367 5 -392 5 -25 1 -70 -1 -100 -4 -30
-3 -68 -6 -85 -7 -49 -1 -69 -24 -76 -88 -4 -31 -12 -84 -18 -117 -6 -33 -14
-75 -17 -93 -4 -23 -15 -39 -43 -58 -37 -24 -38 -28 -44 -93 -3 -37 -15 -94
-26 -126 -12 -33 -21 -69 -21 -80 0 -12 -16 -41 -36 -64 -24 -28 -40 -58 -45
-89 -18 -95 -87 -121 -149 -57 -19 19 -42 35 -52 35 -23 0 -121 44 -161 72
-46 33 -114 38 -562 43 l-390 4 -31 -30 c-26 -26 -37 -30 -62 -24 -23 5 -45
-2 -97 -29 -40 -22 -81 -36 -102 -36 -28 0 -43 -9 -78 -44 -66 -69 -105 -46
-105 62 0 44 -31 178 -46 205 -4 7 -22 29 -38 51 -27 33 -31 45 -29 93 2 41
-2 64 -17 88 -15 24 -20 50 -20 99 0 80 -16 116 -65 145 -24 14 -37 30 -42 51
-3 19 -18 39 -37 52 -17 12 -43 34 -57 49 -27 28 -27 28 -140 24 -63 -2 -177
-8 -254 -13 -78 -6 -145 -7 -150 -2 -17 14 -62 29 -69 23z m-431 -198 c125 -8
79 -9 663 10 250 8 255 7 268 -63 4 -19 21 -51 39 -71 26 -29 33 -47 37 -92 4
-50 10 -63 50 -109 38 -43 46 -60 51 -103 3 -29 12 -65 21 -82 9 -16 16 -46
16 -65 0 -33 25 -87 55 -116 7 -7 21 -39 31 -71 9 -32 23 -65 31 -74 29 -34
16 -71 -43 -124 -47 -42 -57 -57 -65 -98 -5 -27 -19 -62 -31 -79 -12 -18 -25
-56 -29 -87 -7 -47 -14 -61 -48 -92 l-40 -38 4 -123 c6 -212 13 -251 49 -291
17 -20 45 -69 61 -109 46 -111 94 -199 121 -221 25 -20 124 -159 124 -175 0
-17 35 -40 73 -46 21 -4 46 -17 55 -29 29 -37 94 -96 111 -101 9 -3 35 -10 58
-16 23 -6 55 -21 70 -34 16 -13 40 -26 53 -28 16 -2 35 -19 55 -49 16 -25 45
-63 62 -84 33 -39 33 -39 27 -125 -4 -47 -10 -89 -14 -93 -4 -5 -37 6 -73 24
l-65 32 -84 -12 c-53 -9 -124 -11 -198 -7 -306 16 -333 15 -368 -6 -51 -31
-64 -58 -56 -116 5 -39 1 -68 -17 -126 -29 -92 -49 -100 -79 -32 -10 25 -30
52 -44 62 -20 12 -26 25 -26 52 0 35 -14 119 -32 194 -8 34 -37 72 -86 110
-12 10 -22 29 -22 42 0 14 -11 37 -24 53 -38 46 -49 75 -52 138 -3 47 -13 78
-48 148 -24 48 -55 97 -69 107 -17 14 -27 34 -32 67 -4 26 -18 66 -31 89 -19
32 -26 60 -29 120 -4 98 -8 109 -51 129 -28 13 -34 21 -34 47 0 17 -11 50 -25
73 -13 23 -31 75 -39 115 -12 55 -23 82 -45 104 -16 17 -37 49 -45 71 -9 21
-30 51 -47 65 -29 24 -31 31 -44 140 -8 63 -16 122 -19 130 -2 8 -7 40 -10 70
-4 48 -9 59 -41 83 -27 23 -35 36 -35 61 0 19 -9 43 -20 56 -21 24 -34 65 -46
137 -5 31 -17 52 -50 84 -33 33 -44 51 -44 75 0 19 -8 38 -21 50 -31 28 -45
62 -53 124 -4 30 -13 78 -21 105 -14 51 -32 126 -42 179 -9 46 17 59 102 52
39 -4 106 -9 150 -11z m4541 -21 c43 -25 48 -26 86 -13 31 10 46 10 70 1 25
-9 41 -8 87 8 86 29 108 5 99 -105 -4 -44 -10 -58 -34 -78 -32 -27 -74 -103
-74 -133 0 -11 -20 -44 -45 -74 -35 -43 -45 -63 -45 -92 0 -44 -26 -183 -41
-220 -6 -15 -19 -30 -29 -33 -34 -11 -52 -43 -55 -97 -4 -79 -23 -185 -40
-218 -8 -16 -27 -42 -41 -57 -30 -32 -44 -64 -44 -100 0 -16 -16 -41 -45 -71
-49 -49 -52 -56 -59 -147 -10 -138 -24 -186 -69 -235 -40 -42 -44 -52 -60
-145 -10 -55 -20 -112 -23 -126 -3 -14 -22 -46 -43 -72 -27 -32 -41 -60 -46
-93 -5 -34 -17 -57 -46 -89 -34 -36 -42 -54 -49 -103 -4 -33 -15 -71 -24 -85
-9 -13 -19 -48 -23 -77 -4 -38 -15 -65 -40 -96 -18 -25 -41 -59 -51 -77 -9
-17 -29 -44 -43 -60 -30 -31 -39 -65 -39 -149 0 -32 -7 -72 -15 -87 -8 -16
-16 -41 -19 -56 -7 -36 -21 -52 -62 -65 -45 -15 -64 0 -64 50 0 29 -9 48 -35
80 -32 39 -35 47 -35 109 0 73 -10 89 -73 121 -15 7 -43 38 -63 67 -41 61 -51
68 -119 78 -43 7 -57 15 -95 56 -25 27 -61 55 -80 63 -19 8 -46 26 -59 40 -22
23 -32 26 -92 26 -121 0 -130 10 -119 143 6 65 11 82 33 105 29 30 50 79 41
93 -12 21 10 71 53 119 40 45 44 54 39 84 -5 25 -1 39 14 59 12 15 24 43 27
62 3 20 11 39 17 42 18 12 186 2 221 -13 18 -7 62 -14 97 -14 34 0 76 0 92 0
17 0 39 8 50 20 19 19 21 33 21 168 0 181 -10 334 -24 360 -6 11 -21 26 -35
35 -14 10 -33 40 -46 74 -12 32 -33 80 -48 106 -23 43 -24 52 -14 81 7 18 12
54 12 80 0 45 22 106 38 106 16 0 44 62 39 86 -3 19 4 33 30 58 33 31 35 36
39 119 3 47 11 102 19 121 8 20 15 49 15 66 0 64 50 130 127 169 50 25 217 46
283 35 25 -4 108 -8 185 -10 77 -1 163 -5 190 -9 40 -5 57 -2 85 14 45 26 44
26 96 -5z m-2021 -1016 l26 -23 3 -871 c3 -562 8 -878 14 -890 6 -11 11 -53
11 -94 1 -41 2 -93 2 -115 1 -22 -2 -92 -5 -155 -9 -145 -9 -132 -1 -280 3
-69 7 -153 8 -187 1 -34 8 -68 15 -75 20 -20 14 -55 -14 -77 -25 -20 -39 -21
-218 -21 -105 0 -197 4 -204 9 -11 7 -14 201 -18 1056 -2 751 -7 1058 -15
1083 -9 27 -9 48 1 91 16 72 16 384 0 438 -11 35 -10 45 9 81 l21 41 153 4
c83 1 160 4 169 5 9 1 29 -8 43 -20z m799 -2925 c-4 -10 -10 -57 -14 -104 -5
-71 -11 -94 -33 -128 -20 -30 -27 -53 -27 -88 0 -56 -3 -61 -50 -93 -43 -30
-50 -39 -50 -70 0 -14 -14 -45 -30 -70 -17 -25 -30 -58 -30 -76 0 -62 -13 -68
-141 -59 -131 8 -323 8 -596 -1 -164 -5 -195 -3 -222 11 -29 14 -35 14 -79 0
-27 -10 -85 -17 -137 -18 -81 -2 -93 0 -122 22 -26 20 -38 23 -70 16 -89 -17
-93 -16 -128 52 -17 34 -36 68 -42 75 -6 7 -16 29 -22 49 -8 25 -25 46 -52 63
-43 29 -59 58 -59 109 0 18 -9 61 -21 97 -22 73 -19 105 12 113 30 8 60 -9 89
-49 16 -22 52 -47 105 -73 44 -22 89 -49 99 -60 16 -18 31 -21 100 -22 120 0
229 -14 266 -33 46 -22 466 -24 550 -1 30 8 78 15 105 15 51 0 102 12 210 50
92 32 104 40 125 87 16 36 28 47 74 68 41 19 63 37 82 66 32 52 129 97 108 52z"/>
<path d="M17480 3550 c-47 -4 -98 -13 -115 -20 -18 -7 -81 -13 -155 -14 -69
-1 -134 -7 -145 -13 -11 -6 -56 -14 -100 -18 -44 -4 -102 -15 -130 -25 -27
-10 -74 -21 -104 -25 -73 -10 -91 -30 -91 -102 0 -89 7 -103 45 -103 18 0 48
11 68 24 29 20 52 25 133 30 76 4 567 7 709 4 11 0 77 3 146 7 105 7 134 5
174 -9 27 -9 73 -16 102 -16 59 0 93 -13 93 -35 0 -25 -38 -37 -99 -30 -32 4
-228 6 -437 5 -208 -1 -494 -3 -634 -3 -199 -1 -268 2 -316 14 -34 8 -72 12
-87 8 -42 -11 -93 -56 -112 -99 -14 -32 -26 -42 -55 -50 -49 -13 -60 -28 -69
-92 -4 -29 -15 -68 -25 -86 -17 -33 -17 -34 9 -78 23 -39 30 -44 62 -44 20 0
51 5 69 12 26 9 43 8 88 -5 41 -11 65 -13 89 -6 17 5 52 9 76 9 24 0 68 8 97
17 l53 16 40 -28 c32 -21 47 -26 68 -20 16 4 107 11 203 16 148 8 191 15 278
40 90 27 109 30 145 21 29 -8 56 -8 90 0 51 11 106 2 257 -42 64 -19 157 -32
234 -34 60 -2 76 28 86 155 7 99 16 135 42 186 9 17 8 36 -2 78 -11 48 -11 57
2 72 9 10 23 33 32 51 16 31 16 36 2 58 -9 13 -29 31 -44 41 -15 9 -38 27 -52
39 -22 19 -40 22 -167 28 -93 4 -154 12 -179 22 -28 12 -54 14 -100 9 -56 -6
-68 -4 -107 19 -24 14 -52 25 -63 25 -10 -1 -57 -5 -104 -9z"/>
<path d="M20005 3553 c-22 -2 -83 -10 -135 -18 -171 -26 -195 -29 -212 -26 -9
1 -43 -5 -76 -14 -33 -8 -89 -15 -125 -15 -35 0 -81 -7 -100 -15 -20 -8 -53
-15 -73 -15 -50 0 -104 -53 -104 -103 0 -23 -9 -46 -25 -65 -21 -25 -35 -31
-87 -37 -33 -4 -77 -14 -97 -22 -40 -17 -146 -96 -159 -119 -4 -8 -30 -29 -57
-47 -27 -18 -58 -48 -68 -68 -10 -20 -32 -44 -48 -53 -103 -61 -58 -136 82
-136 26 0 63 -7 84 -16 34 -14 43 -14 84 0 60 19 280 24 339 7 33 -9 51 -9 85
0 60 18 357 12 404 -7 30 -13 41 -13 88 1 29 8 76 15 105 15 28 0 64 7 79 15
18 9 67 15 137 17 98 3 113 1 147 -19 46 -28 113 -30 180 -7 62 21 87 54 87
113 1 25 7 75 15 111 22 100 19 130 -16 184 l-32 47 32 33 c42 43 75 129 61
157 -15 27 -43 36 -141 45 -46 4 -98 13 -116 20 -18 8 -52 14 -75 14 -24 0
-65 7 -92 15 -47 14 -80 16 -171 8z m-429 -264 c12 -4 91 -5 175 -3 149 5 219
1 219 -14 0 -4 -17 -18 -38 -32 -35 -24 -44 -25 -212 -28 -96 -1 -196 -3 -222
-5 -35 -1 -54 4 -76 20 -23 17 -38 21 -66 16 -22 -3 -36 -2 -36 5 0 13 36 25
50 17 6 -4 23 1 37 10 51 34 105 38 169 14z m747 -11 c26 0 62 2 81 3 42 4 72
-17 55 -37 -7 -9 -31 -13 -68 -12 -31 1 -81 -2 -111 -7 -40 -5 -73 -3 -117 8
-33 9 -77 14 -96 10 -37 -6 -81 12 -71 29 4 6 28 8 63 5 31 -3 65 -2 76 3 11
6 47 7 80 4 33 -3 81 -6 108 -6z"/>
<path d="M11092 3514 c-28 -12 -149 -21 -441 -33 -21 -1 -34 -12 -63 -55 -4
-6 -41 -12 -82 -14 -100 -5 -111 -17 -111 -121 l0 -76 -83 -3 c-102 -3 -132
-19 -132 -67 0 -38 -19 -62 -66 -81 -18 -8 -36 -19 -40 -25 -12 -21 -35 -193
-28 -222 9 -44 28 -48 189 -37 81 6 154 9 163 6 25 -7 420 -10 562 -3 98 4
137 10 180 28 76 31 189 39 340 24 128 -14 160 -21 160 -36 0 -16 59 -39 102
-39 24 0 67 -6 95 -13 28 -7 60 -10 71 -6 27 10 86 131 79 161 -4 14 4 40 25
76 28 49 29 57 20 95 -6 23 -13 54 -16 69 -4 16 -20 35 -41 48 -39 24 -38 35
2 45 56 13 73 32 73 79 0 40 -21 76 -44 76 -5 0 -30 16 -56 35 -40 29 -56 35
-98 35 -28 0 -77 6 -109 14 -32 8 -121 17 -198 19 -77 3 -151 9 -165 15 -14 5
-77 12 -140 15 -89 5 -122 3 -148 -9z m222 -251 c24 -13 39 -13 85 -3 35 7 94
9 156 6 137 -8 182 -8 237 -1 40 6 53 3 94 -21 l48 -28 -29 -8 c-25 -6 -402
-15 -540 -12 -27 1 -189 2 -360 2 -170 1 -328 2 -350 3 -22 1 -60 -1 -85 -5
-33 -6 -50 -4 -64 7 -19 14 -19 15 5 30 19 13 59 18 164 21 326 12 546 23 552
29 8 8 50 -2 87 -20z"/>
<path d="M48788 3515 c-2 -2 -62 -9 -133 -15 -337 -28 -347 -30 -400 -59 -27
-16 -75 -36 -105 -45 -74 -21 -105 -53 -96 -101 4 -22 16 -41 32 -52 23 -15
33 -15 102 -3 90 16 1006 24 1186 10 122 -9 142 -19 108 -52 -22 -22 -24 -22
-414 -23 -216 -1 -559 2 -762 7 -409 10 -393 12 -416 -56 -6 -20 -25 -40 -54
-58 -36 -21 -46 -34 -52 -63 -4 -25 -17 -44 -43 -62 -69 -51 -75 -72 -40 -152
17 -40 26 -50 58 -60 21 -6 49 -11 63 -11 33 0 63 -23 55 -44 -7 -18 -71 -23
-82 -6 -12 20 -71 11 -95 -15 -38 -40 -33 -118 14 -235 38 -92 68 -140 90
-140 6 0 37 -16 70 -36 l59 -37 118 18 c102 16 126 17 173 5 44 -10 65 -10
120 1 53 10 89 10 179 1 62 -6 128 -8 147 -4 19 5 78 8 131 7 l97 -1 51 -47
52 -46 -38 -9 c-21 -5 -189 -10 -373 -11 -285 -2 -343 1 -390 15 -76 22 -147
29 -165 14 -21 -17 -28 -66 -15 -104 9 -28 22 -40 83 -69 40 -19 85 -40 100
-46 15 -6 37 -27 48 -46 12 -19 24 -35 28 -35 4 0 28 -20 52 -45 24 -25 72
-61 105 -80 l62 -35 135 12 c107 9 144 9 174 -1 28 -9 45 -10 66 -2 35 13 230
14 275 2 20 -6 43 -6 60 0 20 7 40 5 79 -9 46 -16 60 -17 120 -6 88 15 119 28
133 54 19 35 5 65 -40 85 -36 16 -46 29 -74 89 -18 39 -38 86 -45 104 -18 43
-71 88 -123 103 -24 7 -81 12 -128 11 -106 -2 -125 7 -76 38 74 45 82 69 41
116 -63 72 -76 82 -122 93 -59 15 -83 36 -83 72 0 15 -4 39 -10 54 -10 27 -58
74 -76 75 -20 0 -128 106 -121 117 4 6 22 15 40 19 56 12 93 35 104 65 19 49
60 59 248 59 185 0 158 9 238 -82 31 -36 35 -37 129 -48 121 -14 161 -1 179
60 6 21 23 50 36 65 20 21 24 33 19 58 -5 23 0 40 17 66 36 54 40 76 26 134
-15 61 -23 73 -58 90 -42 20 -32 40 28 59 62 20 71 29 71 76 0 23 -8 40 -24
55 -34 31 -197 87 -281 97 -38 5 -115 14 -170 21 -55 7 -129 14 -165 15 -201
9 -329 12 -332 9z m-195 -804 c8 -8 7 -15 -5 -27 -21 -21 -203 -29 -271 -12
-39 10 -54 9 -80 -2 -18 -7 -50 -14 -72 -14 -34 -1 -40 2 -43 21 -6 44 21 49
248 47 142 -1 215 -5 223 -13z"/>
<path d="M35760 3500 c-74 -5 -171 -14 -214 -19 -44 -6 -96 -11 -116 -11 -22
0 -60 -12 -95 -31 -31 -17 -85 -35 -119 -41 -97 -17 -126 -55 -105 -141 9 -37
9 -51 0 -60 -7 -7 -56 -15 -109 -18 -122 -7 -166 -27 -252 -111 -103 -102
-200 -240 -200 -285 0 -12 10 -32 23 -43 19 -19 30 -21 82 -16 70 7 96 7 230
1 170 -7 209 -12 238 -25 29 -14 46 -9 124 41 30 19 34 19 86 4 29 -8 62 -22
73 -30 19 -14 19 -14 -2 -35 -20 -20 -30 -21 -390 -24 -203 -2 -406 0 -452 5
-56 6 -89 6 -103 -1 -26 -14 -99 -166 -99 -207 0 -25 -8 -38 -35 -59 -64 -49
-65 -132 -2 -169 38 -23 91 -24 412 -7 146 7 235 8 264 1 28 -6 62 -6 95 0 28
5 78 7 111 5 33 -3 85 -2 115 3 72 11 95 42 103 143 3 39 11 78 17 85 7 8 32
24 56 36 25 12 60 36 79 54 29 26 35 40 35 72 0 42 -23 73 -54 73 -25 0 -56
19 -56 34 0 8 16 21 35 30 39 19 66 11 86 -26 10 -19 17 -20 76 -14 37 4 84
17 111 31 148 77 139 74 252 70 58 -3 110 -5 116 -5 6 0 28 -16 50 -36 32 -29
45 -34 72 -30 39 6 77 35 111 84 42 62 76 285 51 333 -17 31 -65 51 -93 38
-18 -8 -30 -8 -45 0 -28 15 -63 14 -103 -3 -45 -19 -405 -25 -465 -8 -28 8
-51 9 -74 2 -19 -6 -80 -10 -136 -10 -107 0 -143 12 -131 44 10 25 47 34 118
29 47 -4 74 -1 95 10 19 9 36 12 49 6 11 -5 162 -8 335 -7 240 1 324 -2 352
-12 72 -26 121 27 122 134 1 53 -2 60 -27 79 -25 19 -46 22 -225 28 -108 4
-228 9 -267 12 -38 3 -131 1 -205 -3z"/>
<path d="M21227 3490 l-329 -5 -20 -25 c-39 -49 -7 -138 64 -173 31 -15 44
-16 109 -6 64 10 79 9 113 -5 36 -15 38 -18 24 -32 -25 -25 -87 -34 -195 -27
-99 6 -102 5 -127 -20 -16 -16 -26 -37 -26 -55 0 -16 -6 -45 -14 -63 -8 -19
-17 -78 -21 -131 -7 -94 -7 -97 18 -122 24 -24 30 -25 153 -25 71 0 145 -5
164 -11 50 -14 97 -12 125 6 21 14 37 14 137 3 118 -13 124 -13 280 -3 119 7
128 14 138 116 4 41 11 82 17 93 6 11 13 50 17 86 5 57 4 69 -14 92 -28 36
-25 57 15 105 65 75 83 153 44 188 -24 22 -84 23 -672 14z"/>
<path d="M22372 3487 c-22 -4 -48 -17 -58 -28 -16 -18 -17 -26 -6 -76 21 -101
93 -139 205 -110 53 14 58 14 94 -5 37 -20 39 -20 91 -3 52 18 52 18 84 -5
l31 -23 51 28 51 28 42 -22 c50 -25 85 -27 117 -6 19 13 84 16 391 19 l368 3
36 -24 c33 -23 42 -24 116 -18 101 8 110 17 119 120 6 62 4 82 -9 101 -8 13
-21 24 -28 24 -227 5 -1667 3 -1695 -3z"/>
<path d="M28195 3490 c-500 -3 -917 -8 -925 -13 -27 -13 -42 -48 -47 -112 -4
-55 -2 -65 19 -87 21 -24 31 -26 135 -32 101 -6 115 -4 131 12 31 31 49 32 99
5 39 -20 55 -24 88 -18 101 19 562 25 1020 13 164 -4 219 -3 253 8 40 13 47
13 89 -6 35 -15 58 -19 93 -14 35 5 49 2 59 -9 25 -31 -23 -41 -194 -44 -231
-3 -253 -3 -435 3 -253 7 -254 7 -437 -6 -153 -10 -178 -10 -221 4 -39 13 -95
16 -297 16 -138 0 -275 0 -305 1 -61 3 -137 -28 -146 -59 -3 -9 -14 -37 -24
-62 -10 -25 -21 -69 -23 -98 -2 -32 -11 -60 -23 -73 -24 -26 -23 -78 1 -111
33 -42 64 -48 189 -36 61 5 171 8 244 5 101 -4 144 -2 174 9 22 8 58 14 78 14
21 0 61 5 89 12 43 9 57 9 97 -7 32 -12 61 -16 94 -12 29 4 66 0 95 -9 36 -10
58 -11 84 -4 61 17 225 12 266 -7 33 -16 39 -16 83 -1 26 9 88 19 137 22 73 4
102 2 155 -15 35 -11 76 -17 90 -14 14 3 77 1 140 -4 176 -14 194 0 204 159 3
47 8 119 12 160 6 73 5 77 -22 109 l-28 34 23 16 c42 28 87 78 105 115 9 19
21 38 26 41 6 3 10 19 10 35 0 24 -6 31 -42 44 -59 21 -149 22 -1213 16z"/>
<path d="M38043 3473 c-19 -19 -23 -33 -23 -90 0 -107 48 -166 106 -129 22 15
27 15 55 0 29 -15 34 -15 73 3 35 16 67 18 244 17 195 0 203 -1 225 -22 l21
-22 -22 -22 c-22 -23 -26 -23 -275 -21 -204 1 -261 4 -297 18 -25 9 -56 13
-72 10 -38 -9 -71 -52 -63 -83 4 -17 -2 -36 -18 -61 -14 -20 -28 -56 -31 -81
-4 -25 -15 -59 -26 -75 -34 -51 -27 -88 25 -131 56 -46 120 -57 162 -28 27 18
86 26 193 25 202 -2 434 -9 477 -16 69 -10 96 -2 149 47 37 34 44 46 44 78 0
21 9 59 21 85 17 38 20 62 17 122 -3 70 -6 77 -37 105 l-33 29 36 32 c31 27
38 41 46 92 13 82 13 89 -8 116 l-19 22 -474 1 -474 1 -22 -22z"/>
<path d="M39944 3490 c-412 -5 -400 -4 -430 -61 -32 -63 -13 -112 59 -154 69
-40 68 -57 -7 -72 -85 -16 -106 -28 -106 -58 0 -14 -8 -42 -19 -63 -12 -25
-20 -70 -24 -141 -9 -156 15 -196 102 -170 30 9 58 9 114 1 54 -8 103 -8 183
0 60 6 233 11 384 11 233 1 282 -2 322 -16 56 -19 92 -11 109 26 16 36 -3 261
-24 285 -9 10 -19 34 -21 52 -4 33 -23 56 -88 102 -20 14 -21 19 -10 35 45 65
50 138 11 187 -20 26 -89 47 -141 44 -18 -1 -204 -5 -414 -8z m237 -231 c14
-14 18 -24 11 -31 -6 -6 -66 -12 -135 -15 -103 -4 -131 -2 -157 12 -29 15 -35
15 -72 0 -48 -19 -98 -12 -98 14 0 9 5 22 10 27 6 6 93 11 215 12 196 2 206 1
226 -19z"/>
<path d="M41332 3490 c-209 -5 -225 -6 -239 -25 -19 -26 -13 -127 11 -173 16
-31 16 -34 -4 -62 -11 -15 -24 -51 -30 -78 -5 -28 -18 -65 -30 -84 -11 -18
-20 -50 -20 -70 0 -21 -9 -52 -20 -70 -24 -40 -26 -91 -3 -113 9 -9 33 -27 54
-40 20 -14 41 -30 45 -36 10 -17 -41 -59 -72 -59 -72 0 -147 -95 -143 -182 1
-24 -2 -75 -6 -114 -6 -56 -4 -76 9 -101 20 -40 45 -48 106 -33 38 9 78 9 174
0 75 -7 137 -8 157 -3 19 5 97 6 174 2 224 -12 252 1 262 122 5 58 12 83 34
115 34 51 44 99 29 152 -16 60 -32 65 -158 54 -59 -6 -134 -10 -167 -11 -33 0
-100 -3 -150 -7 -132 -9 -143 -9 -165 11 -45 41 -19 60 111 81 104 17 391 18
456 2 24 -6 54 -7 68 -4 37 9 65 61 65 119 0 27 5 90 11 141 14 110 7 154 -28
197 -30 35 -30 34 36 71 35 19 91 101 91 133 0 48 -30 58 -188 66 -81 4 -169
7 -197 6 -27 -1 -150 -4 -273 -7z"/>
<path d="M1818 3484 c-4 -3 -48 -6 -100 -6 -73 0 -101 -4 -132 -19 -38 -20
-39 -20 -158 1 -145 24 -160 24 -199 5 -22 -12 -64 -16 -159 -17 -71 -1 -133
-4 -139 -7 -19 -12 -24 -113 -8 -153 28 -68 62 -73 392 -68 194 3 412 -10 425
-25 23 -28 -23 -43 -168 -57 -113 -11 -154 -11 -322 -6 -105 4 -228 -14 -279
-41 -32 -18 -29 -78 8 -128 25 -34 28 -46 23 -91 -4 -48 -2 -54 27 -81 39 -37
89 -48 150 -33 57 13 482 8 560 -7 67 -14 127 -14 151 -1 10 5 28 25 39 44 18
28 21 49 21 141 0 99 -2 109 -25 136 -35 43 -46 92 -34 151 15 70 8 223 -11
242 -18 17 -54 29 -62 20z"/>
<path d="M4669 3486 c-3 -3 -183 -6 -400 -7 -420 -1 -442 -4 -473 -51 -18 -28
-31 -117 -22 -152 10 -41 53 -56 162 -56 53 0 114 5 135 11 31 10 45 9 79 -5
39 -16 43 -15 88 4 43 19 53 20 139 9 51 -6 103 -8 115 -5 13 4 70 11 128 15
136 10 159 22 193 101 33 75 34 95 4 115 -24 15 -137 32 -148 21z"/>
<path d="M5368 3480 c-37 -3 -73 -11 -80 -18 -8 -8 -13 -40 -13 -91 0 -88 11
-109 72 -138 41 -19 38 -37 -8 -41 -106 -9 -129 -57 -145 -312 -6 -78 -4 -87
16 -109 21 -21 28 -22 84 -17 135 13 892 24 1038 14 25 -1 44 4 59 17 19 18
20 26 14 75 -6 47 -10 95 -14 173 -1 10 -17 33 -36 50 -19 17 -35 39 -35 49 0
13 -15 26 -47 40 -47 21 -53 21 -278 9 -246 -12 -331 -7 -349 21 -7 11 -7 21
-1 27 10 10 259 17 447 12 110 -2 132 3 172 41 16 15 21 30 19 69 -2 73 -9 92
-42 112 -27 16 -68 18 -418 20 -213 1 -418 0 -455 -3z"/>
<path d="M7215 3480 c-259 -4 -356 -8 -372 -18 -20 -11 -23 -21 -23 -78 0 -62
2 -68 34 -100 31 -31 39 -34 103 -36 140 -5 219 -3 265 4 25 4 69 4 96 -1 29
-4 77 -3 112 2 70 11 110 0 110 -33 0 -27 -39 -35 -96 -21 -34 9 -60 9 -104 0
-37 -7 -95 -9 -157 -5 -108 8 -130 8 -248 3 -94 -4 -122 -12 -129 -35 -11 -41
-18 -87 -20 -141 -2 -45 -9 -66 -29 -93 -44 -57 -32 -120 29 -153 31 -16 42
-17 97 -7 39 7 141 10 277 7 118 -2 260 -1 314 2 90 6 102 9 130 34 28 24 32
35 37 101 4 40 10 107 14 149 6 62 4 87 -10 126 l-18 50 53 101 c44 84 51 104
40 117 -16 19 -75 35 -120 33 -19 -2 -192 -5 -385 -8z"/>
<path d="M8203 3479 c-65 -13 -103 -61 -103 -129 0 -45 29 -70 104 -90 52 -15
78 -17 110 -11 52 12 237 15 297 6 34 -5 54 -3 77 9 35 18 161 15 259 -6 45
-10 56 -9 80 7 25 16 55 19 263 21 129 1 269 6 310 9 l75 7 47 -38 c26 -21 45
-40 42 -43 -2 -3 -56 -10 -120 -17 -87 -9 -269 -11 -713 -7 -732 7 -671 8
-760 -5 -75 -10 -108 -30 -97 -59 3 -6 0 -27 -5 -45 -12 -42 -39 -212 -39
-250 0 -17 10 -39 23 -52 21 -21 28 -22 147 -18 69 2 282 5 473 7 l348 3 25
27 c22 24 29 26 57 19 18 -5 69 -8 115 -6 54 1 92 -2 110 -11 22 -12 32 -12
57 -1 38 17 100 18 128 2 24 -13 209 -29 242 -22 27 7 62 59 73 111 6 23 24
64 41 90 19 29 29 54 25 65 -3 10 -7 38 -8 63 -4 51 -16 69 -63 94 l-34 17 61
28 c68 32 85 55 95 132 6 41 3 54 -13 74 l-20 25 -840 0 c-462 0 -853 -3 -869
-6z"/>
<path d="M12799 3480 c-387 -6 -369 -1 -369 -111 0 -63 2 -69 32 -94 29 -25
37 -27 83 -19 93 14 359 20 575 12 94 -3 134 -9 161 -23 37 -18 38 -17 94 6
64 26 94 62 116 137 10 34 10 47 -1 67 -20 38 34 36 -691 25z"/>
<path d="M13833 3480 c-12 -5 -24 -18 -28 -29 -9 -29 15 -138 36 -165 18 -23
21 -24 191 -21 95 1 199 6 230 10 45 6 68 4 103 -9 37 -15 51 -16 81 -6 19 7
47 10 62 7 15 -3 53 -1 85 5 42 8 70 7 100 -1 50 -14 80 -6 125 36 35 33 65
99 58 129 -3 11 -16 26 -28 32 -28 14 -981 25 -1015 12z"/>
<path d="M24512 3480 c-33 -14 -42 -49 -32 -120 7 -50 15 -70 40 -95 l31 -32
-50 -33 c-34 -21 -53 -41 -57 -59 -3 -14 -12 -44 -18 -66 -35 -111 -50 -195
-40 -222 16 -47 62 -65 167 -65 78 1 564 0 737 -1 30 0 72 3 92 8 27 5 47 3
72 -9 54 -25 93 -21 127 15 34 37 36 52 9 110 -11 24 -20 66 -20 92 0 27 -4
67 -9 90 -6 23 -12 54 -15 68 -4 18 -18 32 -42 44 -30 14 -45 15 -102 6 -37
-6 -121 -11 -187 -10 -66 0 -131 0 -145 0 -292 -2 -322 -1 -355 13 -42 18 -44
30 -9 53 25 16 28 16 56 0 36 -21 63 -21 114 -3 55 18 203 19 231 1 27 -18 46
-19 90 -3 29 11 39 10 69 -7 42 -22 69 -22 93 -1 10 9 31 16 48 16 37 0 67 31
88 89 21 62 19 86 -11 110 -26 21 -36 21 -488 20 -253 0 -471 -4 -484 -9z"/>
<path d="M26080 3477 c-30 -15 -37 -44 -30 -115 5 -44 12 -60 36 -81 l29 -26
360 1 c408 2 405 1 450 77 30 53 34 116 7 140 -17 15 -61 17 -423 17 -302 0
-410 -3 -429 -13z"/>
<path d="M29773 3479 c-37 -14 -52 -48 -49 -114 4 -103 51 -141 142 -116 45
12 439 3 467 -11 20 -10 23 -37 5 -40 -7 -1 -94 -3 -193 -4 -99 -2 -196 -4
-215 -4 -19 -1 -67 1 -105 5 -67 7 -72 6 -103 -20 -18 -15 -32 -35 -32 -45 0
-10 -9 -37 -20 -61 -11 -24 -20 -54 -20 -66 0 -12 -18 -43 -40 -68 -22 -25
-40 -55 -40 -66 0 -29 26 -75 47 -84 10 -5 171 -9 358 -10 207 -2 371 -8 420
-15 137 -21 138 -21 205 45 52 52 60 64 58 95 -1 25 8 49 25 76 49 72 28 171
-44 203 -33 15 -57 17 -130 13 -64 -3 -93 -1 -104 8 -14 12 -14 15 1 31 13 15
35 17 162 18 179 0 179 0 194 120 10 73 9 84 -6 99 -15 15 -62 17 -489 18
-260 1 -482 -2 -494 -7z"/>
<path d="M31211 3478 c-39 -11 -51 -28 -57 -85 -13 -102 42 -161 133 -144 26
5 147 8 268 6 121 -2 307 1 414 6 120 5 217 5 255 -1 50 -7 288 -11 531 -8 28
0 71 -3 97 -7 57 -9 62 -2 78 114 18 135 116 121 -858 124 -458 1 -845 -1
-861 -5z"/>
<path d="M33532 3482 l-343 -2 -10 -28 c-6 -15 -9 -66 -7 -113 2 -69 7 -91 22
-108 20 -22 20 -22 -7 -76 -16 -33 -29 -81 -33 -122 -7 -62 -10 -70 -51 -108
-50 -48 -53 -69 -18 -125 31 -48 56 -56 223 -64 102 -5 129 -3 155 10 29 15
33 15 64 -1 32 -17 35 -17 92 0 56 17 63 17 110 1 27 -9 63 -16 79 -16 38 0
71 -34 56 -58 -17 -26 -202 -38 -267 -17 -26 9 -52 13 -57 10 -5 -3 -106 -7
-223 -9 -186 -3 -218 -6 -242 -22 -30 -20 -55 -69 -55 -109 0 -15 -12 -52 -27
-83 -30 -64 -43 -175 -24 -210 14 -26 66 -37 115 -24 29 8 47 7 81 -6 41 -15
48 -15 92 0 40 13 93 15 313 13 159 -2 276 -7 292 -13 72 -29 128 41 136 167
3 53 12 91 28 123 33 66 31 107 -6 143 -41 39 -38 60 10 85 25 13 47 34 59 59
11 21 31 45 44 54 23 15 25 23 31 137 6 101 4 131 -10 175 -16 52 -16 56 5
107 11 29 25 72 31 95 6 23 15 45 20 48 6 3 10 17 10 30 0 56 -75 62 -688 57z
m278 -231 c165 -18 181 -21 175 -32 -4 -5 -18 -9 -33 -9 -15 0 -49 -7 -76 -15
-51 -16 -251 -21 -340 -9 -35 5 -46 11 -46 25 0 24 14 32 80 46 60 12 69 12
240 -6z"/>
<path d="M42403 3479 c-36 -19 -56 -69 -51 -128 8 -77 25 -91 114 -91 54 0 77
-4 89 -17 16 -15 15 -17 -11 -31 -23 -12 -40 -13 -89 -5 -64 11 -88 5 -105
-26 -5 -11 -15 -98 -21 -193 -11 -169 -11 -175 10 -216 23 -46 53 -60 99 -47
15 5 72 9 127 10 55 1 116 8 135 14 35 12 170 31 242 34 21 0 45 -6 55 -15 31
-27 74 -30 118 -8 44 22 76 25 106 9 11 -5 47 -11 79 -13 40 -2 66 -8 79 -20
23 -21 84 -24 106 -6 11 9 30 10 63 5 26 -4 83 -10 126 -14 81 -6 105 -20 68
-40 -13 -7 -37 -8 -67 -2 -40 8 -49 6 -65 -12 -37 -39 -41 -75 -31 -247 12
-208 10 -205 136 -194 78 6 329 6 650 0 50 -1 100 -7 112 -14 30 -17 64 -15
92 4 23 16 23 17 19 213 -3 165 -6 201 -21 229 -10 18 -25 36 -33 39 -19 7
-18 32 6 78 24 47 26 108 5 129 -9 8 -38 27 -66 42 -42 23 -56 39 -86 97 -21
39 -52 84 -70 102 -43 42 -129 67 -200 58 -69 -8 -83 4 -83 69 0 88 -35 123
-145 143 -21 3 -52 13 -67 21 -15 8 -43 14 -63 14 -20 0 -50 6 -68 14 -24 10
-106 13 -337 14 -168 1 -447 4 -620 7 -222 4 -321 2 -337 -6z m1305 -228 c145
-7 187 -12 199 -24 9 -8 13 -23 10 -31 -6 -14 -33 -16 -194 -17 -338 -2 -446
-1 -608 6 -90 4 -188 2 -225 -3 -55 -8 -70 -7 -100 8 -19 10 -50 21 -67 25
-37 8 -42 20 -14 35 25 13 229 13 436 0 134 -9 167 -8 205 4 30 10 66 14 110
10 36 -3 147 -9 248 -13z m417 -526 c45 -60 -28 -100 -107 -59 -24 13 -46 15
-98 10 -70 -7 -120 5 -120 30 0 15 10 18 115 32 109 15 192 10 210 -13z"/>
<path d="M45165 3480 c-68 -15 -85 -38 -85 -121 0 -50 17 -73 77 -103 42 -21
60 -20 108 4 43 22 86 26 115 10 11 -6 160 -12 356 -15 292 -5 340 -4 360 10
32 20 50 59 59 122 6 44 4 54 -14 72 -12 12 -29 21 -38 22 -123 4 -916 3 -938
-1z"/>
<path d="M46580 3473 c-34 -14 -44 -41 -35 -92 12 -72 75 -137 129 -132 17 1
209 4 427 5 499 4 491 2 525 114 18 60 18 87 -1 102 -21 17 -1005 21 -1045 3z"/>
<path d="M51050 3480 c-837 -4 -1030 -7 -1051 -19 -32 -16 -49 -49 -56 -112
-5 -39 -2 -49 17 -67 30 -28 78 -34 245 -30 77 1 214 1 305 0 91 -2 250 -3
355 -3 152 0 196 -3 223 -16 30 -15 36 -14 74 3 46 21 40 20 421 8 163 -5 218
-10 255 -24 111 -42 63 -49 -358 -51 -255 0 -862 6 -1425 15 -50 1 -103 -20
-110 -45 -4 -10 -22 -37 -41 -60 -29 -35 -34 -48 -34 -93 0 -29 -7 -75 -15
-102 -24 -79 -17 -141 19 -167 6 -4 66 -5 133 -1 87 4 137 2 173 -7 44 -11 58
-11 98 3 65 21 273 18 319 -5 74 -39 49 -60 -64 -54 -125 7 -138 -9 -147 -188
-4 -60 -9 -129 -12 -153 -15 -103 6 -114 198 -104 228 11 491 3 525 -16 13 -7
49 -12 80 -11 60 3 103 -6 103 -21 0 -15 -65 -30 -127 -29 -33 1 -65 -1 -71
-5 -20 -12 -586 -10 -609 2 -53 29 -118 -1 -164 -74 -19 -32 -22 -49 -21 -121
l2 -83 -35 -22 c-59 -38 -60 -105 -3 -129 32 -13 89 -14 358 -4 182 6 304 4
340 -5 19 -5 87 -8 150 -7 92 2 121 6 146 21 44 26 65 67 69 132 2 46 8 61 34
88 27 28 31 39 31 87 0 46 -5 60 -30 89 -33 39 -37 58 -16 66 34 13 49 57 56
170 7 91 13 122 34 164 14 28 26 61 26 73 -1 12 -19 40 -41 62 -46 46 -50 82
-9 77 14 -2 147 -5 295 -7 149 -2 288 -6 310 -10 62 -11 78 13 87 131 5 76 12
103 32 139 31 52 32 72 6 145 -27 77 -25 91 20 142 32 37 41 55 46 101 11 97
-3 121 -81 129 -22 2 -501 1 -1065 -2z m-228 -759 c49 13 220 4 272 -15 34
-12 46 -12 79 0 74 26 149 9 134 -30 -11 -28 -56 -39 -118 -27 -43 9 -81 8
-169 -4 -118 -15 -283 -7 -340 16 l-25 11 32 28 c28 25 36 28 64 20 21 -6 47
-6 71 1z"/>
<path d="M59557 3484 c-1 -2 -91 -5 -199 -8 -185 -4 -238 -13 -238 -37 0 -4
-22 -12 -49 -19 -30 -7 -59 -23 -76 -40 -29 -30 -60 -43 -127 -55 -46 -7 -78
-45 -78 -91 0 -49 24 -68 74 -59 23 5 391 9 819 11 593 1 781 5 792 14 41 34
1 121 -62 136 -15 4 -53 18 -83 32 -30 14 -81 29 -113 33 -50 6 -63 12 -86 39
l-26 32 -210 4 c-116 2 -238 6 -272 8 -34 2 -64 2 -66 0z"/>
<path d="M2685 3461 c-60 -27 -105 -83 -105 -130 0 -49 26 -72 108 -96 59 -17
66 -18 116 -2 35 11 68 15 98 11 25 -4 68 -1 96 5 57 12 139 -1 200 -33 32
-17 42 -35 20 -37 -223 -10 -375 -14 -448 -9 -25 1 -85 -2 -134 -7 -81 -8 -90
-11 -112 -38 -14 -17 -33 -59 -44 -95 -15 -50 -28 -71 -55 -93 -46 -36 -57
-65 -44 -111 18 -65 14 -64 414 -60 237 2 381 0 421 -8 81 -15 112 0 136 65
10 26 20 62 23 80 4 22 22 46 56 77 45 40 50 50 56 97 4 38 1 66 -11 98 -10
24 -15 49 -11 54 3 6 23 20 44 32 41 23 124 138 125 173 2 43 -24 46 -479 46
-394 0 -433 -2 -470 -19z"/>
<path d="M52527 3462 c-32 -12 -36 -19 -52 -83 -19 -80 -14 -116 21 -154 31
-34 30 -40 -6 -62 -16 -9 -30 -21 -30 -25 0 -4 -15 -24 -32 -44 -29 -32 -33
-46 -39 -114 -4 -43 -14 -88 -23 -101 -8 -14 -18 -50 -22 -81 -6 -52 -5 -58
20 -83 25 -25 31 -26 74 -19 51 10 62 10 407 4 126 -1 245 -7 264 -11 23 -5
48 -3 75 6 22 8 51 12 63 9 57 -15 133 24 133 68 0 10 9 27 20 38 17 17 33 20
99 20 100 0 125 -10 181 -70 57 -62 84 -68 280 -69 85 -1 218 -5 295 -11 77
-5 204 -11 282 -13 l142 -4 35 29 c38 31 56 77 56 141 0 44 -11 68 -51 115
-16 18 -29 41 -29 52 0 10 -16 32 -37 47 -20 15 -56 45 -79 66 l-43 39 -83
-11 c-94 -12 -416 -15 -713 -6 -268 8 -254 8 -390 2 -165 -8 -267 -8 -425 3
-74 6 -167 10 -205 10 -70 0 -95 10 -95 37 0 6 17 15 38 18 20 3 62 11 93 19
70 16 232 4 331 -25 62 -18 69 -19 105 -4 21 9 48 13 60 10 12 -3 71 -1 131 4
79 7 153 6 270 -4 88 -7 164 -15 169 -18 4 -3 90 -1 191 3 145 7 196 6 250 -5
104 -23 158 -20 177 8 19 29 11 79 -16 103 -11 10 -44 21 -75 25 -30 4 -77 19
-104 33 -27 14 -61 26 -75 26 -14 0 -42 7 -63 16 -37 16 -130 29 -297 42 -49
4 -101 14 -115 22 -36 20 -1112 23 -1163 2z"/>
<path d="M56146 3473 c-3 -4 -134 -8 -289 -9 -155 -2 -329 -3 -387 -4 -58 -1
-117 1 -131 5 -17 4 -38 1 -57 -9 -31 -16 -36 -28 -71 -163 -13 -49 -2 -88 29
-98 32 -10 931 -13 958 -4 35 13 52 67 52 168 0 82 -2 91 -22 105 -23 16 -69
21 -82 9z"/>
<path d="M56646 3458 c-21 -18 -29 -39 -40 -98 -17 -87 -13 -120 18 -149 23
-22 23 -22 868 -23 945 -2 883 -7 906 70 26 86 3 181 -48 202 -20 8 -91 10
-252 6 -155 -5 -237 -3 -268 5 -37 10 -56 9 -100 -4 -35 -10 -77 -14 -115 -11
-33 3 -244 7 -470 8 -225 2 -424 7 -441 11 -24 5 -36 2 -58 -17z"/>
<path d="M14700 3218 c-14 -5 -143 -15 -288 -20 -230 -9 -269 -9 -311 5 -38
12 -58 13 -92 5 -41 -9 -96 -6 -144 7 -36 10 -58 -18 -66 -81 -14 -114 -27
-189 -39 -230 -15 -49 -2 -85 42 -118 26 -18 33 -19 100 -8 48 8 202 11 441
11 456 -1 426 -13 452 173 23 163 21 204 -14 239 -32 31 -42 33 -81 17z"/>
<path d="M13265 3207 c-15 -9 -126 -12 -430 -12 -225 -1 -420 -4 -432 -8 -11
-4 -24 -14 -27 -23 -12 -32 -37 -213 -39 -283 -1 -69 0 -75 27 -98 23 -19 35
-23 55 -17 14 5 191 9 392 10 201 0 374 4 383 7 10 4 30 0 46 -8 39 -20 54
-19 85 8 20 18 26 34 32 87 3 41 15 80 29 106 19 32 24 55 24 112 0 69 -1 71
-37 101 -40 33 -75 38 -108 18z"/>
<path d="M26036 3199 c-12 -18 -16 -47 -16 -124 0 -86 -4 -108 -26 -155 -30
-64 -26 -93 16 -119 28 -17 57 -18 403 -15 204 2 375 3 378 4 17 1 47 84 42
114 -4 23 3 47 23 85 24 47 26 57 16 85 -7 18 -12 42 -12 55 0 12 -12 33 -27
47 -25 23 -35 25 -103 24 -132 -2 -512 7 -596 15 -78 7 -82 6 -98 -16z"/>
<path d="M4635 3194 c-29 -11 -73 -14 -160 -12 -66 1 -167 -4 -225 -11 -58 -8
-114 -13 -125 -13 -102 8 -269 9 -305 2 -66 -12 -80 -36 -80 -131 0 -49 -6
-94 -16 -119 -19 -46 -14 -98 12 -137 15 -24 19 -25 78 -18 33 4 153 9 266 11
113 1 239 5 280 8 41 3 101 2 133 -2 52 -8 107 -4 185 14 33 7 48 50 62 177
14 129 7 190 -25 223 -28 28 -27 27 -80 8z"/>
<path d="M22330 3192 c-17 -8 -37 -27 -43 -41 -7 -14 -22 -41 -34 -60 -13 -19
-23 -48 -23 -65 -1 -17 -7 -58 -15 -90 -8 -32 -11 -72 -8 -88 11 -56 25 -58
260 -51 157 4 231 3 282 -7 59 -11 75 -11 108 2 31 12 64 13 173 7 84 -5 147
-5 166 2 17 5 68 9 115 8 46 0 131 0 189 0 58 1 171 -4 253 -9 159 -11 204 -6
251 31 22 18 26 28 26 74 0 43 6 64 30 102 25 39 30 57 30 110 0 54 -3 65 -23
78 -20 13 -130 15 -864 14 -741 -1 -844 -3 -873 -17z"/>
<path d="M31176 3187 c-29 -16 -42 -31 -49 -57 -5 -19 -15 -42 -23 -51 -9 -10
-19 -43 -24 -75 -5 -33 -18 -83 -30 -112 -17 -45 -19 -59 -9 -95 19 -73 68
-93 145 -61 30 13 60 15 134 11 59 -3 110 0 135 7 47 14 225 12 273 -3 24 -7
53 -6 105 4 40 8 86 13 104 13 18 -1 45 9 64 23 34 24 36 24 274 23 171 -1
268 -6 339 -18 131 -22 205 -7 241 47 43 67 78 254 56 310 -18 47 -46 52 -189
36 -89 -11 -161 -13 -242 -8 -63 4 -179 5 -258 2 -101 -4 -158 -2 -198 7 -47
12 -62 11 -102 -2 -70 -22 -580 -17 -614 6 -32 22 -86 20 -132 -7z"/>
<path d="M45520 3189 c-16 -6 -97 -9 -216 -7 -150 2 -196 0 -217 -11 -15 -8
-27 -20 -27 -26 0 -7 -13 -37 -30 -68 -16 -31 -30 -69 -30 -83 0 -15 -7 -51
-16 -79 -20 -62 -13 -131 17 -169 l20 -25 234 4 c234 5 285 0 285 -29 0 -32
-29 -38 -187 -42 -87 -2 -178 -6 -202 -9 -24 -3 -59 0 -78 7 -52 19 -81 2
-119 -67 -25 -44 -34 -73 -34 -106 0 -31 -8 -61 -25 -90 -48 -84 -24 -143 69
-169 33 -9 56 -9 98 -1 36 8 172 10 418 7 351 -4 366 -3 398 16 42 26 53 48
68 138 7 41 18 107 24 145 11 63 10 76 -7 125 l-19 55 28 62 c15 34 39 70 53
79 21 14 25 24 25 66 0 27 7 62 15 78 38 74 23 178 -28 197 -12 4 -80 6 -152
4 -161 -6 -226 -5 -290 3 -28 3 -61 1 -75 -5z"/>
<path d="M46550 3172 c-31 -15 -70 -102 -70 -155 0 -18 -11 -56 -25 -85 -31
-67 -33 -134 -4 -181 19 -32 20 -35 3 -70 -42 -88 -57 -139 -58 -198 -1 -58
-4 -65 -38 -100 -61 -62 -52 -98 36 -148 43 -24 55 -27 105 -21 107 13 604 19
643 8 54 -15 203 0 227 23 38 33 52 83 63 222 10 131 10 141 -10 192 l-21 54
29 34 c17 19 30 38 30 43 0 5 16 24 35 41 28 26 35 40 35 69 0 21 7 70 16 109
20 88 13 133 -24 158 -25 17 -56 18 -486 18 -360 0 -465 -3 -486 -13z m475
-452 c17 -1 46 2 65 5 24 4 41 1 55 -9 19 -14 19 -15 -17 -30 -33 -14 -42 -15
-72 -2 -31 13 -35 12 -55 -8 -20 -19 -31 -21 -113 -18 -50 2 -113 7 -141 12
-27 6 -71 10 -98 10 -47 0 -70 12 -49 25 26 16 223 23 425 15z"/>
<path d="M58661 3123 c-44 -60 -98 -128 -143 -178 -60 -68 -65 -78 -73 -147
-6 -44 -3 -69 10 -106 18 -49 18 -50 -5 -105 -23 -54 -23 -57 -7 -114 10 -33
17 -76 17 -97 0 -52 13 -72 76 -112 31 -20 65 -51 76 -70 26 -45 45 -54 112
-54 61 0 80 -15 49 -39 -64 -53 -4 -179 87 -182 64 -1 92 -21 129 -93 31 -59
44 -73 86 -96 33 -17 57 -39 70 -64 24 -44 47 -51 114 -37 30 6 94 8 161 4 75
-4 133 -2 180 7 63 12 74 11 110 -5 33 -15 44 -16 69 -5 18 7 46 10 68 6 72
-12 315 -28 338 -22 60 15 86 129 40 179 -14 15 -29 27 -34 27 -22 0 -51 43
-51 78 0 20 -5 54 -11 75 -9 33 -18 42 -63 62 -88 39 -129 47 -182 35 -77 -17
-121 5 -79 40 21 17 19 65 -6 130 -26 69 -32 76 -92 106 -54 28 -140 110 -172
163 -11 19 -40 49 -65 66 -56 39 -63 68 -21 89 16 9 37 16 46 16 31 0 100 43
136 83 l35 41 44 -18 c31 -12 57 -16 87 -11 31 4 53 1 87 -14 25 -12 52 -21
61 -21 25 0 88 -29 113 -53 18 -17 36 -21 85 -22 34 -1 83 -5 108 -9 64 -11
95 16 110 99 6 33 18 73 26 88 8 16 12 40 9 52 -5 18 4 35 35 71 50 57 52 104
6 138 -28 21 -35 21 -360 17 -378 -6 -1154 -4 -1238 2 -31 3 -65 10 -77 16
-38 20 -79 13 -101 -16z m570 -455 c45 1 71 -3 85 -13 19 -15 19 -15 -5 -35
-19 -17 -38 -20 -109 -20 -47 0 -100 5 -118 12 -27 10 -39 9 -73 -6 -28 -13
-52 -17 -83 -12 -23 3 -69 9 -100 12 -56 6 -96 29 -67 38 32 10 131 19 226 20
56 1 105 5 110 9 4 5 21 5 38 1 16 -5 60 -7 96 -6z m-66 -516 c28 -4 121 -4
209 0 130 6 163 5 187 -7 15 -8 39 -15 52 -15 41 0 88 -21 85 -38 -5 -25 -44
-30 -209 -25 -85 2 -201 5 -259 6 -82 2 -112 6 -133 20 -32 21 -73 22 -119 2
-62 -25 -122 9 -88 50 10 12 37 15 119 14 58 0 129 -4 156 -7z"/>
<path d="M55233 3109 c-63 -31 -93 -63 -93 -98 0 -17 -11 -55 -25 -85 -14 -30
-25 -63 -25 -74 0 -11 -6 -38 -14 -60 -16 -43 -10 -64 34 -120 l21 -26 -34
-18 c-44 -22 -62 -65 -63 -148 0 -36 -4 -117 -9 -180 -10 -146 -12 -144 134
-148 185 -5 222 -4 401 6 194 11 272 4 304 -28 28 -27 10 -43 -51 -45 -26 -1
-60 -8 -75 -15 -24 -11 -30 -11 -46 3 -21 20 -65 22 -111 6 -26 -9 -44 -8 -93
6 -53 15 -71 15 -142 5 -50 -8 -109 -10 -151 -5 -166 17 -191 10 -243 -66 -21
-30 -23 -41 -17 -94 5 -54 3 -66 -19 -105 -30 -52 -32 -93 -10 -150 18 -44 53
-62 85 -41 23 14 66 15 74 1 9 -15 42 -12 69 5 36 24 384 23 460 -1 48 -15 62
-16 91 -6 18 7 45 10 59 6 31 -7 140 40 159 70 21 33 47 121 47 160 0 22 9 45
24 63 36 44 40 67 17 119 -27 59 -26 62 6 96 30 32 41 87 42 225 1 50 7 98 17
122 14 35 14 42 0 69 -21 41 -67 61 -119 52 -48 -9 -209 -6 -250 5 -16 4 -52
1 -90 -10 -51 -14 -73 -15 -119 -6 -30 5 -65 7 -76 4 -12 -3 -44 3 -72 13
l-51 18 33 17 c40 20 200 27 359 15 70 -5 124 -4 160 3 44 9 65 8 112 -4 45
-12 68 -13 97 -5 60 16 80 38 85 94 3 31 14 61 30 82 16 21 25 46 25 69 0 20
9 54 21 76 27 53 22 96 -14 123 -27 20 -39 21 -230 19 -331 -4 -426 -3 -557 2
-113 5 -129 3 -167 -16z"/>
<path d="M56625 3115 c-16 -9 -43 -28 -58 -43 -25 -23 -28 -33 -24 -66 4 -31
0 -48 -21 -80 -22 -34 -27 -55 -30 -123 -4 -73 -1 -85 23 -127 l26 -45 -40
-44 c-35 -38 -41 -51 -41 -88 0 -24 -6 -54 -13 -65 -45 -78 -48 -87 -52 -174
l-5 -90 52 -37 52 -38 -35 -8 c-83 -20 -86 -25 -150 -222 -24 -75 -26 -182 -4
-224 18 -36 45 -40 101 -16 28 11 62 13 157 9 95 -5 135 -3 182 10 59 15 62
15 168 -11 97 -24 111 -26 140 -13 35 15 77 16 149 5 46 -7 46 -7 78 36 17 24
41 46 53 49 12 3 150 3 307 0 157 -3 299 -2 316 3 51 12 69 41 67 102 -2 36 4
68 17 97 24 53 25 89 3 147 l-17 44 31 26 c42 36 51 57 59 142 10 118 24 113
-326 114 -286 0 -290 0 -312 22 l-22 23 22 46 c24 49 23 90 -4 129 -34 48 1
88 79 91 29 2 69 8 90 15 32 10 47 10 85 -1 26 -8 72 -13 102 -11 88 6 220 4
286 -4 89 -11 128 11 177 104 20 39 37 82 37 96 0 13 11 49 25 79 30 66 31 96
6 127 -18 23 -24 24 -138 23 -107 -2 -582 -3 -1173 -4 -124 0 -243 0 -265 -1
-22 -1 -60 2 -85 5 -33 5 -53 3 -75 -9z m600 -455 c13 -14 13 -18 0 -38 -23
-32 -81 -44 -161 -33 -38 5 -156 9 -262 8 -170 -2 -195 0 -203 14 -6 12 -3 22
11 34 17 15 32 17 107 11 62 -4 105 -2 143 8 79 20 343 17 365 -4z m220 -511
c72 -6 160 -9 196 -6 54 5 72 2 98 -14 36 -22 40 -44 9 -53 -43 -11 -85 -6
-111 14 -30 24 -50 25 -81 5 -20 -13 -30 -14 -70 -3 -44 12 -51 11 -86 -10
-47 -26 -59 -27 -104 -5 -32 15 -43 15 -106 3 -64 -12 -76 -12 -120 4 -46 17
-50 17 -87 -2 -34 -17 -49 -17 -143 -9 -58 5 -142 10 -187 11 -45 1 -85 5 -89
8 -3 4 6 18 21 32 25 23 36 26 109 27 216 1 387 6 393 12 8 8 186 1 358 -14z"/>
<path d="M17212 2704 c-20 -14 -75 -15 -442 -14 -451 1 -469 -1 -504 -51 -23
-33 -20 -79 9 -141 15 -33 25 -71 25 -101 0 -72 21 -114 62 -122 18 -3 68 -18
110 -33 70 -24 81 -25 113 -13 28 10 127 13 413 13 410 -1 531 -5 561 -21 43
-23 91 16 91 74 0 53 -31 85 -81 85 -29 0 -44 10 -96 65 -35 35 -63 69 -63 75
0 5 -19 24 -42 41 -47 33 -67 62 -68 97 0 24 -32 62 -53 62 -7 0 -23 -7 -35
-16z"/>
<path d="M19227 2714 c-4 -4 -62 -6 -129 -5 -76 1 -156 -5 -210 -15 -80 -15
-90 -15 -119 0 -24 12 -62 16 -150 16 -114 0 -118 -1 -137 -25 -11 -14 -23
-45 -27 -68 -17 -107 -46 -191 -82 -230 -31 -35 -35 -44 -30 -79 3 -22 8 -43
12 -46 13 -14 135 -17 367 -11 134 4 266 3 293 -1 28 -5 71 -4 97 0 26 5 102
5 174 0 151 -10 155 -8 174 88 23 115 23 115 81 154 30 20 70 52 87 72 27 31
32 45 32 85 0 64 -14 75 -82 67 -50 -7 -88 -8 -173 -7 -19 0 -45 0 -57 -1 -13
-1 -43 1 -69 5 -25 4 -48 5 -52 1z"/>
<path d="M20825 2711 c-28 -12 -41 -30 -50 -69 -4 -19 -20 -49 -37 -68 -27
-30 -29 -38 -22 -76 10 -54 8 -63 -22 -107 -30 -44 -31 -91 -3 -117 20 -18 42
-19 388 -21 230 -1 382 -5 407 -12 65 -18 106 -13 155 17 24 16 49 35 56 43 7
9 18 55 24 105 6 49 14 107 16 129 3 21 16 56 30 76 18 27 22 44 17 64 -11 44
-40 50 -161 35 -159 -19 -613 -17 -743 4 -19 3 -44 2 -55 -3z"/>
<path d="M22410 2698 c-35 -16 -55 -19 -106 -13 -82 9 -100 2 -124 -45 -16
-31 -20 -59 -20 -130 0 -89 0 -90 -35 -129 -40 -44 -46 -88 -17 -114 10 -10
43 -24 73 -33 44 -13 62 -14 99 -5 44 11 491 28 640 24 41 -1 112 -7 157 -14
59 -8 92 -8 113 -1 30 11 283 9 451 -4 79 -5 90 -4 137 20 58 30 75 53 75 108
0 28 -7 45 -24 61 -22 21 -32 22 -154 20 -188 -2 -312 -8 -380 -17 -54 -8 -62
-6 -79 13 -17 19 -20 37 -20 120 -1 142 13 134 -232 127 -158 -4 -212 -2 -246
9 -23 7 -93 15 -154 18 -95 4 -117 2 -154 -15z"/>
<path d="M25458 2699 c-34 -19 -39 -19 -96 -4 -49 12 -66 13 -89 3 -20 -9
-128 -13 -373 -15 -190 -2 -367 -4 -395 -4 -27 -1 -65 -1 -83 1 -55 5 -87 -63
-84 -184 1 -66 0 -71 -33 -108 -25 -27 -35 -47 -35 -71 0 -45 16 -62 79 -82
45 -15 60 -16 87 -6 28 10 257 14 524 9 30 0 98 2 150 5 74 5 106 3 147 -10
50 -16 56 -16 101 0 43 15 51 16 97 2 29 -9 61 -13 75 -9 14 4 63 10 109 13
64 5 86 10 95 23 14 22 -7 170 -29 201 -8 12 -15 28 -15 36 0 8 -16 47 -35 88
-19 41 -35 78 -35 83 0 5 -12 18 -26 29 -34 26 -87 26 -136 0z"/>
<path d="M6794 2686 c-64 -28 -116 -68 -129 -100 -9 -22 -15 -84 -16 -186 -4
-203 -18 -191 219 -182 97 3 193 6 212 5 66 -2 145 -2 200 -1 30 0 77 -1 103
-2 44 -3 51 0 87 35 30 29 44 55 60 109 11 39 30 88 42 109 16 32 19 48 14 90
-7 53 -36 111 -60 120 -7 3 -37 8 -67 12 -47 5 -61 3 -102 -19 -42 -23 -59
-26 -125 -24 -43 1 -130 0 -195 -1 -106 -4 -121 -2 -145 16 -40 29 -63 34 -98
19z"/>
<path d="M12383 2689 c-18 -5 -45 -25 -59 -43 -34 -42 -74 -147 -74 -193 0
-18 -7 -45 -17 -59 -21 -33 -22 -110 0 -131 30 -31 121 -40 300 -32 188 9 327
6 373 -9 24 -8 43 -5 85 9 67 24 181 25 246 3 32 -11 59 -14 87 -9 23 4 95 7
161 6 166 -3 177 -3 470 8 240 9 465 3 552 -15 50 -10 78 2 114 48 32 39 33
45 31 115 -2 71 -1 76 33 120 24 32 35 56 35 80 0 38 -22 88 -43 96 -8 3 -133
3 -278 0 -293 -5 -356 -8 -412 -18 -28 -5 -50 -2 -87 14 -65 28 -111 27 -147
-3 -35 -30 -93 -126 -102 -168 -10 -50 -63 -81 -125 -74 -26 3 -67 0 -90 -6
-37 -10 -48 -9 -82 8 l-39 19 4 77 c3 76 2 78 -29 109 l-31 32 -177 -8 c-338
-14 -488 -11 -572 13 -82 24 -81 24 -127 11z"/>
<path d="M42480 2690 c-19 -5 -61 -12 -92 -15 -106 -12 -166 -83 -167 -199 -1
-53 -5 -63 -36 -97 -39 -44 -46 -86 -17 -112 29 -26 90 -34 242 -32 450 7 590
6 609 -4 38 -21 95 -13 139 18 50 37 50 37 72 128 11 41 30 92 44 112 28 41
32 70 15 122 -26 78 -55 89 -176 68 -46 -8 -89 -8 -154 0 -78 9 -96 8 -122 -5
-25 -14 -36 -14 -68 -4 -24 8 -60 11 -98 7 -41 -5 -73 -2 -102 8 -23 8 -44 15
-48 14 -3 -1 -22 -5 -41 -9z"/>
<path d="M8656 2683 c-6 -6 -89 -11 -236 -14 -19 0 -60 2 -91 6 -43 6 -63 3
-89 -10 -26 -13 -46 -15 -100 -10 -85 9 -119 -7 -160 -73 -24 -38 -30 -58 -30
-105 0 -38 -7 -70 -20 -94 -24 -46 -27 -125 -5 -147 26 -26 75 -28 307 -17
282 13 437 14 928 5 306 -5 401 -4 419 5 33 18 74 113 66 152 -10 44 -62 65
-125 51 -53 -12 -473 -4 -509 10 -20 7 -22 13 -16 41 4 17 9 61 11 97 7 101 6
102 -184 106 -87 2 -162 1 -166 -3z"/>
<path d="M10161 2680 c-113 -12 -117 -18 -113 -188 3 -171 11 -198 60 -212 21
-5 57 -24 80 -41 35 -25 49 -30 75 -25 125 26 498 25 909 -2 110 -7 144 -20
120 -44 -9 -9 -128 -12 -480 -13 -257 0 -473 -4 -479 -8 -30 -19 -12 -54 65
-129 70 -68 83 -77 127 -83 65 -10 81 -19 90 -52 3 -15 19 -43 34 -62 16 -20
33 -46 39 -57 26 -50 53 -53 419 -53 222 0 350 -4 369 -11 21 -8 40 -8 71 1
26 7 60 9 86 4 23 -3 56 -9 73 -12 47 -7 134 41 134 75 0 8 -15 31 -34 52 -26
29 -36 50 -41 91 -11 80 -27 103 -87 128 -33 14 -68 40 -94 69 l-42 47 -80 0
c-100 0 -112 9 -78 60 30 44 31 53 12 100 -18 41 -61 65 -118 65 -48 0 -88 22
-88 48 0 30 -40 95 -91 147 -27 28 -49 55 -49 61 0 6 -11 21 -25 34 -23 22
-27 23 -67 10 -27 -9 -102 -15 -203 -16 -88 -2 -178 -3 -200 -4 -100 -3 -263
8 -288 18 -16 7 -29 11 -30 11 -1 -1 -35 -5 -76 -9z"/>
<path d="M26200 2678 c-30 -3 -92 -6 -138 -7 -46 -1 -92 -6 -102 -11 -11 -6
-40 -36 -65 -67 -45 -54 -46 -58 -40 -107 5 -40 2 -61 -14 -96 -28 -62 -26
-86 9 -122 l31 -31 112 5 c76 3 129 0 164 -9 46 -12 57 -12 90 3 34 14 55 15
205 3 153 -11 170 -11 212 5 69 26 86 54 86 140 0 52 6 83 20 111 13 25 20 59
20 96 0 93 4 92 -288 93 -136 1 -272 -2 -302 -6z"/>
<path d="M29990 2676 c-22 -13 -248 -22 -364 -15 -21 1 -37 -6 -54 -27 -23
-27 -24 -33 -20 -126 5 -94 4 -100 -22 -136 -15 -20 -29 -44 -33 -53 -9 -25
27 -74 68 -94 34 -16 44 -16 94 -4 72 16 571 22 656 7 75 -13 141 -12 176 2
34 14 59 69 59 128 0 26 7 86 16 135 9 48 13 98 10 112 -9 34 -48 57 -106 61
-27 2 -60 8 -74 14 -18 7 -37 5 -67 -5 -55 -20 -225 -20 -259 0 -31 18 -48 18
-80 1z"/>
<path d="M38715 2680 c-22 -4 -102 -6 -177 -4 -76 2 -148 0 -160 -5 -32 -12
-256 -16 -348 -6 -63 6 -82 5 -109 -9 -44 -23 -70 -86 -82 -195 -23 -203 -23
-200 -3 -222 15 -17 26 -19 59 -14 47 8 122 10 265 7 58 -1 125 -2 150 -2 25
1 66 -2 91 -5 32 -5 56 -2 75 7 41 20 210 16 254 -7 72 -37 100 4 100 147 0
72 2 78 35 118 51 61 48 99 -9 156 -46 47 -60 50 -141 34z"/>
<path d="M39412 2674 c-29 -25 -82 -155 -82 -205 0 -21 -11 -58 -25 -85 -31
-58 -31 -76 -1 -111 24 -27 26 -28 133 -28 59 0 169 2 243 4 74 2 341 2 593 0
449 -4 459 -4 474 16 19 26 12 108 -11 133 -9 11 -16 36 -16 61 0 23 -7 56
-16 73 -20 39 -84 130 -101 144 -9 8 -56 10 -146 6 -72 -3 -224 -4 -337 -2
-357 5 -424 5 -475 1 -27 -2 -86 0 -130 4 -70 6 -83 5 -103 -11z"/>
<path d="M6091 2664 c-19 -14 -56 -17 -195 -20 -94 -2 -187 -4 -206 -4 -19 -1
-92 1 -162 4 -71 2 -142 1 -160 -5 -21 -5 -45 -5 -69 2 -52 16 -78 7 -139 -48
l-52 -47 6 -62 c5 -49 3 -64 -10 -74 -43 -37 -58 -121 -26 -159 9 -12 33 -26
52 -30 19 -4 326 -7 681 -6 745 1 699 -5 699 88 0 38 -7 64 -26 97 -15 25 -37
83 -50 130 -13 46 -32 96 -42 110 -23 30 -64 37 -94 16 -31 -22 -70 -20 -101
4 -31 24 -74 26 -106 4z"/>
<path d="M28289 2675 c-4 -3 -138 -6 -300 -6 -179 -1 -301 -5 -315 -11 -40
-18 -51 -63 -58 -225 -10 -210 -35 -193 283 -187 143 3 258 1 268 -4 10 -5
102 -7 208 -4 l189 5 28 28 c26 26 28 32 28 117 0 74 3 94 20 115 34 42 18
127 -28 151 -28 14 -312 33 -323 21z"/>
<path d="M31065 2660 c-12 -4 -26 -14 -31 -21 -22 -27 -44 -114 -44 -169 0
-44 -5 -61 -20 -75 -23 -20 -35 -73 -26 -110 4 -16 21 -32 48 -46 39 -20 50
-21 167 -13 174 10 609 6 706 -7 89 -12 89 -12 230 -4 55 4 177 2 270 -3 155
-9 174 -8 212 9 50 21 93 64 93 91 0 10 -11 30 -25 43 l-24 25 -299 0 c-289 0
-300 1 -317 21 -17 18 -18 23 -5 52 21 51 25 163 6 192 -16 25 -68 35 -80 17
-3 -5 -156 -9 -339 -9 -184 -1 -349 -4 -365 -8 -26 -5 -67 1 -125 20 -7 2 -21
0 -32 -5z"/>
<path d="M1797 2635 c-27 -24 -33 -25 -205 -27 -97 -1 -190 -1 -207 0 -16 1
-89 4 -162 7 l-131 6 -36 -32 c-42 -36 -45 -62 -15 -114 19 -32 20 -41 10 -74
-19 -65 -14 -105 22 -157 39 -60 73 -79 114 -63 17 7 98 10 218 9 105 -2 206
-2 225 -1 19 1 80 3 135 4 107 2 140 14 163 60 17 34 17 47 3 115 -14 61 -13
64 13 112 31 58 29 65 -38 135 -50 51 -69 55 -109 20z"/>
<path d="M2975 2648 c-143 -10 -141 -10 -203 -2 -32 4 -69 2 -96 -6 -36 -10
-55 -10 -94 0 -33 9 -57 10 -77 3 -19 -6 -42 -6 -67 1 -31 8 -45 7 -66 -4 -36
-21 -82 -99 -89 -151 -5 -36 -16 -53 -58 -95 -29 -28 -58 -60 -64 -72 -18 -33
-14 -107 7 -133 18 -21 22 -22 63 -11 56 14 242 23 277 13 15 -5 55 -3 88 2
47 8 69 7 93 -3 36 -15 39 -30 10 -56 -17 -15 -39 -19 -108 -21 -47 -1 -117
-5 -156 -8 -38 -3 -111 -7 -162 -8 -85 -2 -94 -4 -129 -32 -66 -51 -83 -75
-106 -149 -22 -72 -51 -116 -75 -116 -18 0 -23 33 -20 130 2 83 1 86 -35 143
-42 63 -59 69 -104 35 -27 -22 -33 -23 -259 -19 -126 2 -274 4 -328 5 -94 1
-100 0 -119 -24 -17 -21 -19 -32 -11 -80 4 -30 7 -95 5 -143 -3 -100 14 -153
53 -163 13 -3 47 -1 77 4 70 14 499 14 566 1 67 -13 92 -7 137 33 l36 31 35
-34 35 -34 117 1 c64 1 203 4 307 7 105 2 209 0 233 -4 23 -5 53 -7 65 -3 32
8 87 83 111 152 17 48 30 67 66 94 79 60 106 163 55 213 -29 30 -58 31 -109 4
-44 -23 -84 -22 -100 4 -19 31 15 45 136 53 l111 7 50 41 c56 45 64 64 66 143
1 48 5 56 46 96 48 48 51 57 34 107 -13 36 -59 61 -106 58 -15 -1 -77 -5 -138
-10z"/>
<path d="M4479 2656 c-5 -6 -305 -17 -384 -15 -11 0 -97 1 -192 1 l-171 2 -36
-28 c-48 -36 -69 -79 -72 -147 -1 -30 -9 -72 -18 -93 -9 -21 -16 -60 -16 -86
0 -62 30 -90 96 -90 24 0 55 -5 68 -12 20 -9 36 -8 68 2 32 9 137 14 392 15
l350 2 23 29 c32 40 44 89 36 152 -5 48 -3 56 27 98 27 38 31 51 26 80 -4 18
-17 46 -29 60 -20 23 -33 27 -93 31 -38 3 -72 2 -75 -1z"/>
<path d="M53235 2640 c-28 -19 -47 -20 -286 -20 -212 0 -266 3 -308 17 -48 15
-54 15 -87 -1 -27 -13 -50 -15 -98 -10 -41 4 -70 2 -85 -6 -33 -17 -51 -70
-51 -147 -1 -60 -4 -73 -30 -107 -46 -61 -42 -107 15 -164 25 -24 45 -50 45
-58 0 -18 -49 -54 -83 -61 -40 -8 -57 -53 -57 -146 0 -44 -6 -90 -15 -110 -24
-57 -20 -102 11 -126 25 -19 40 -21 205 -21 98 0 201 5 229 11 37 8 64 8 98 0
44 -10 482 -24 582 -19 93 6 216 0 256 -11 31 -8 55 -8 94 0 38 8 68 8 109 0
31 -6 97 -13 148 -17 l92 -7 30 30 c24 24 31 42 37 92 8 77 32 111 79 111 21
0 44 9 64 25 23 20 45 27 98 32 37 3 80 12 95 19 32 16 59 90 55 149 -2 36 1
40 23 43 52 6 79 24 91 59 7 23 28 46 60 70 50 36 51 38 79 158 29 127 26 152
-26 191 l-35 27 -72 -22 c-69 -22 -78 -22 -237 -12 -111 7 -177 8 -200 1 -27
-8 -46 -6 -84 6 -32 11 -64 14 -93 10 -34 -4 -57 -1 -91 14 -55 25 -75 18
-111 -37 -18 -28 -24 -53 -26 -99 -2 -71 -8 -81 -75 -127 -70 -47 -100 -88
-107 -144 -4 -38 -1 -53 14 -72 19 -23 22 -23 84 -13 56 9 214 16 277 12 12
-1 55 -1 95 -1 198 0 273 -1 280 -6 17 -10 -16 -43 -56 -54 -39 -10 -98 -9
-217 7 -24 4 -74 1 -110 -5 -48 -9 -79 -9 -114 -1 -33 7 -66 7 -104 1 -41 -8
-68 -7 -97 1 -52 15 -208 14 -274 -2 -37 -9 -114 -11 -266 -7 -201 5 -217 7
-246 28 -52 37 -27 44 187 49 l196 5 25 30 c82 100 77 85 84 243 8 146 5 165
-27 196 -20 21 -33 20 -69 -4z m-575 -464 c106 -8 128 -25 65 -52 -42 -17
-227 -19 -274 -3 -19 7 -31 18 -31 29 0 23 62 39 130 34 25 -2 74 -6 110 -8z"/>
<path d="M9167 2163 c-4 -3 -262 -7 -574 -8 l-568 -2 -50 -24 c-65 -31 -98
-92 -104 -193 -2 -45 -10 -81 -22 -100 -10 -17 -19 -40 -19 -51 1 -51 79 -100
134 -83 17 5 216 10 441 10 293 1 428 5 473 14 92 19 200 20 392 5 168 -14
260 -3 292 36 14 17 25 97 34 261 9 146 22 138 -224 140 -110 1 -202 -1 -205
-5z"/>
<path d="M16601 2160 c-67 -10 -69 -74 -3 -104 21 -10 46 -30 56 -46 22 -38
66 -69 108 -76 60 -10 83 -24 103 -62 11 -20 34 -46 52 -57 17 -11 37 -31 44
-43 28 -50 31 -50 567 -53 l502 -3 25 24 c32 30 32 42 -6 84 -23 27 -32 48
-36 91 -7 70 -36 114 -90 139 -30 14 -46 29 -59 58 -10 22 -27 43 -38 46 -12
4 -255 5 -541 2 -286 -3 -549 -3 -585 0 -36 3 -80 3 -99 0z"/>
<path d="M23528 2161 c-10 -3 -323 -5 -695 -3 -373 1 -693 0 -711 -3 -55 -10
-63 -46 -85 -364 -2 -26 4 -38 25 -54 25 -19 40 -20 498 -18 412 2 477 4 504
18 26 13 52 15 171 9 77 -4 217 -10 310 -12 214 -7 209 -9 211 132 1 53 9 123
19 162 20 77 15 117 -16 127 -28 9 -209 14 -231 6z"/>
<path d="M3703 2151 c-44 -4 -68 -12 -82 -26 -22 -23 -67 -148 -77 -215 -4
-25 -17 -65 -30 -90 -28 -53 -30 -77 -6 -108 24 -30 109 -40 170 -20 29 10 58
12 95 7 28 -4 94 -3 146 3 66 6 120 6 183 -2 49 -7 101 -9 116 -5 15 4 69 6
121 6 101 -1 153 9 189 37 19 15 25 31 29 83 3 35 14 81 24 101 31 61 19 159
-24 207 -20 21 -27 23 -82 17 -173 -19 -181 -19 -213 -2 -40 21 -82 20 -126
-1 -31 -14 -42 -15 -90 -3 -52 12 -56 12 -99 -14 -60 -35 -98 -34 -140 4 -19
17 -36 29 -38 28 -2 0 -32 -4 -66 -7z"/>
<path d="M5160 2151 c-93 -14 -107 -39 -121 -210 -5 -58 -11 -124 -15 -146 -5
-34 -2 -45 19 -67 33 -36 69 -44 137 -30 35 8 166 12 347 12 l292 0 20 26 c16
20 21 41 21 83 0 70 20 104 58 99 28 -3 36 -19 47 -89 8 -53 44 -100 85 -113
25 -8 231 -10 693 -6 l659 5 17 22 c13 16 20 48 24 125 4 57 9 139 13 183 10
118 19 114 -231 110 -167 -3 -210 -6 -230 -19 -30 -20 -58 -20 -93 -2 -15 7
-70 16 -122 20 -110 8 -121 3 -154 -65 -27 -57 -62 -61 -88 -10 -28 57 -39 63
-130 68 -69 5 -90 2 -110 -11 -24 -16 -30 -16 -82 -1 -46 14 -65 14 -116 4
-47 -9 -81 -9 -155 1 -85 11 -105 11 -184 -5 l-88 -18 -32 22 c-24 17 -41 22
-69 18 -20 -3 -78 -11 -128 -18 -80 -11 -97 -11 -150 4 -64 18 -64 18 -134 8z"/>
<path d="M12221 2146 c-6 -7 -14 -33 -17 -57 -3 -24 -12 -61 -20 -82 -9 -25
-12 -55 -8 -85 5 -40 2 -52 -20 -81 -40 -54 -31 -109 22 -125 24 -8 536 -9
772 -1 80 2 253 4 385 3 132 0 457 -1 722 -2 l482 -1 23 22 c19 20 22 34 24
110 1 49 5 131 9 184 6 79 5 98 -8 110 -13 13 -68 15 -408 13 -709 -5 -1318
-5 -1636 0 -250 4 -313 3 -322 -8z"/>
<path d="M18326 2145 c-12 -12 -16 -37 -17 -93 0 -135 -6 -196 -20 -241 -13
-42 -13 -44 13 -66 l27 -23 503 -1 c486 -1 504 0 536 19 17 11 33 25 33 32 1
7 2 67 3 133 1 66 5 140 10 165 5 34 3 50 -8 65 -14 19 -28 20 -539 23 -470 2
-527 1 -541 -13z"/>
<path d="M20656 2139 c-31 -25 -46 -87 -57 -243 -9 -126 -9 -130 13 -153 l21
-23 473 0 473 0 13 23 c7 13 13 74 15 152 2 92 8 144 20 178 17 48 17 49 -4
67 -20 16 -59 17 -483 17 -432 0 -462 -1 -484 -18z"/>
<path d="M24615 2150 c-228 -4 -317 -8 -335 -18 -38 -20 -60 -80 -60 -165 0
-41 -7 -96 -15 -123 -20 -66 -19 -71 14 -105 l29 -29 125 7 c116 6 128 4 166
-16 51 -26 68 -26 106 -1 27 18 47 20 208 20 196 0 229 8 248 58 6 15 8 46 4
70 -8 53 5 72 50 72 55 0 64 -27 40 -121 -5 -19 -1 -33 17 -53 l23 -27 580 0
c388 1 593 -3 620 -10 80 -22 109 -22 137 1 32 24 48 74 48 145 0 28 10 93 21
147 12 53 19 103 16 112 -3 8 -20 22 -37 31 -28 15 -47 15 -163 5 -253 -23
-275 -23 -337 -6 -54 15 -62 15 -97 1 -28 -12 -53 -15 -96 -10 l-58 6 -39 -42
c-39 -43 -60 -45 -60 -5 0 12 -6 30 -13 40 -12 17 -41 18 -423 20 -225 0 -548
-1 -719 -4z"/>
<path d="M27618 2148 c-30 -22 -70 -137 -77 -220 -6 -66 -11 -82 -34 -106 -36
-37 -34 -51 11 -87 35 -28 41 -30 112 -26 102 5 660 6 735 1 70 -5 131 11 164
41 21 20 23 28 17 78 -5 47 -2 64 19 106 39 79 32 176 -14 199 -37 19 -185 23
-316 7 -70 -8 -149 -11 -215 -6 -58 3 -143 8 -190 9 -47 2 -110 6 -140 10 -40
6 -60 4 -72 -6z"/>
<path d="M30319 2145 c-20 -11 -70 -14 -220 -13 -327 1 -351 1 -461 -3 -97 -4
-109 -6 -133 -29 -42 -39 -54 -71 -70 -186 -20 -141 -19 -177 4 -205 17 -21
28 -24 97 -25 53 -1 89 3 108 13 25 13 80 15 329 14 280 -2 302 -3 340 -22 39
-21 40 -21 66 -1 34 25 50 72 50 149 1 55 5 67 31 96 25 29 30 43 30 85 0 68
-13 98 -52 122 -38 23 -82 25 -119 5z"/>
<path d="M39368 2153 c-54 -3 -70 -8 -78 -23 -5 -10 -14 -78 -19 -150 -7 -89
-15 -139 -25 -155 -23 -35 -20 -72 8 -100 32 -32 69 -40 116 -26 24 7 149 11
359 11 l323 0 29 29 c27 28 29 33 23 89 -6 54 -4 64 17 91 31 38 40 38 69 -1
16 -22 23 -43 21 -72 -2 -63 8 -93 37 -112 25 -17 76 -18 704 -21 675 -4 677
-3 696 17 16 18 20 40 24 133 3 63 13 142 24 179 17 64 17 68 0 86 -9 11 -27
22 -40 24 -12 3 -166 1 -342 -2 -186 -4 -329 -4 -343 2 -46 17 -79 1 -104 -50
-18 -38 -28 -48 -51 -50 -32 -4 -41 6 -56 59 -6 21 -18 38 -28 41 -9 2 -105 1
-212 -2 -107 -3 -207 -2 -222 3 -16 5 -52 7 -80 4 -69 -7 -646 -10 -723 -4
-33 2 -90 2 -127 0z"/>
<path d="M42339 2150 c-160 -5 -189 -13 -189 -49 0 -9 -7 -34 -15 -56 -8 -22
-14 -76 -15 -121 0 -54 -5 -86 -15 -100 -23 -31 -18 -70 11 -93 22 -18 41 -21
111 -21 52 0 97 -6 120 -15 33 -14 41 -14 84 0 40 13 80 15 231 11 226 -6 228
-6 308 -2 36 2 77 4 93 5 50 2 67 31 67 119 0 42 7 102 15 132 19 72 19 144 0
164 -25 24 -75 29 -202 17 -104 -9 -125 -9 -161 6 -37 14 -51 15 -110 4 -49
-10 -74 -10 -95 -2 -16 6 -40 10 -55 9 -15 -1 -97 -4 -183 -8z"/>
<path d="M33820 2134 c-32 -12 -183 -19 -320 -14 -25 1 -92 1 -150 0 -58 -1
-158 4 -223 11 -106 10 -120 10 -136 -5 -24 -22 -61 -141 -67 -213 -3 -50 -8
-62 -34 -83 -22 -18 -30 -34 -30 -56 0 -61 59 -84 210 -84 58 0 128 1 155 1
458 1 602 5 637 21 48 22 71 57 66 105 -1 22 7 70 21 112 22 67 23 79 13 130
-18 85 -59 107 -142 75z"/>
<path d="M38169 2146 c-4 -4 -75 -7 -159 -7 -148 0 -190 -8 -190 -34 0 -6 -14
-30 -31 -54 -26 -35 -33 -56 -39 -117 -6 -63 -12 -80 -35 -104 -32 -34 -36
-74 -9 -101 24 -23 154 -45 182 -30 12 6 113 11 248 12 356 3 378 2 405 -20
l24 -20 -27 -27 c-24 -24 -37 -28 -100 -32 -100 -6 -149 -5 -248 3 -130 10
-321 5 -350 -10 -14 -7 -44 -15 -68 -18 -24 -3 -52 -13 -62 -22 -24 -21 -41
-94 -39 -159 1 -30 -5 -71 -15 -97 -16 -42 -16 -49 -2 -83 21 -49 55 -62 116
-42 38 12 53 13 78 4 23 -9 43 -9 79 -1 35 9 59 9 90 0 32 -8 54 -8 92 2 38
10 55 10 71 1 13 -7 38 -9 59 -6 20 4 80 11 134 16 91 9 102 8 139 -11 57 -29
84 -20 108 37 11 25 20 62 20 82 0 20 9 86 20 145 22 123 20 132 -39 184 -35
31 -35 32 -16 46 10 8 43 20 72 27 77 17 87 30 80 111 -6 67 -5 68 30 104 l36
37 -6 71 c-9 108 -18 113 -170 107 -168 -6 -255 -5 -372 4 -55 5 -103 5 -106
2z"/>
<path d="M44270 2137 c-201 -12 -211 -12 -437 -2 -233 10 -229 11 -262 -99
-16 -55 -21 -87 -16 -120 7 -44 6 -47 -39 -90 -25 -25 -46 -52 -46 -61 0 -24
37 -55 68 -56 37 -2 604 -9 667 -9 28 0 69 -5 93 -11 34 -10 50 -9 85 4 23 8
59 18 80 22 48 8 67 36 77 118 4 35 15 77 24 95 34 66 11 193 -40 212 -28 11
-32 11 -254 -3z"/>
<path d="M44942 2140 c-29 -4 -59 -13 -67 -20 -24 -20 -45 -108 -45 -191 0
-46 -6 -91 -15 -113 -34 -82 8 -115 146 -115 505 1 827 5 841 12 24 12 39 65
37 130 -1 37 6 76 21 116 22 60 22 62 5 107 -28 74 -21 72 -365 65 -279 -6
-372 -3 -470 12 -19 3 -59 2 -88 -3z"/>
<path d="M46450 2140 c-52 -3 -102 -9 -111 -13 -23 -11 -39 -74 -45 -175 -3
-48 -12 -106 -21 -130 -17 -49 -8 -84 32 -122 19 -17 30 -21 52 -15 63 16 191
20 438 15 143 -4 296 -3 339 1 103 10 123 28 134 119 6 52 16 76 46 119 48 68
53 118 16 155 -20 20 -42 27 -113 37 -49 6 -123 8 -165 5 -216 -18 -300 -18
-370 -2 -39 9 -86 15 -104 14 -18 -1 -76 -4 -128 -8z"/>
<path d="M31045 2133 c-11 -2 -30 -6 -42 -8 -26 -6 -100 -82 -125 -128 -10
-18 -17 -55 -18 -86 0 -42 -5 -59 -25 -83 -54 -64 -14 -156 63 -145 169 25
215 28 349 23 82 -3 164 -5 183 -4 19 1 130 1 245 1 871 -4 857 -4 880 31 8
12 17 64 21 126 12 177 10 217 -13 248 l-20 27 -144 -4 c-119 -3 -574 -5 -781
-3 -29 0 -141 0 -248 -1 -107 -1 -220 1 -250 5 -30 3 -64 4 -75 1z"/>
<path d="M35120 2129 c-283 -21 -555 -27 -636 -15 -60 10 -207 -23 -236 -52
-26 -25 -40 -121 -36 -238 3 -88 6 -105 22 -117 16 -12 104 -14 530 -11 319 1
521 6 538 13 46 18 64 84 33 125 -17 22 -20 62 -5 71 21 13 31 83 20 147 -15
94 -11 93 -230 77z"/>
<path d="M26423 1650 c-23 -5 -51 -13 -61 -19 -26 -14 -230 -16 -263 -3 -17 7
-81 8 -190 3 -141 -7 -262 -7 -409 1 -51 2 -192 -9 -211 -16 -43 -18 -54 -157
-19 -235 11 -24 20 -60 20 -81 0 -72 57 -89 305 -90 263 -2 693 8 705 15 6 4
35 -6 64 -21 49 -25 57 -26 85 -14 17 7 31 16 31 20 0 4 16 24 35 43 22 22 35
45 35 60 0 14 4 47 10 74 31 162 34 191 16 218 -27 41 -86 58 -153 45z"/>
<path d="M41432 1628 c-29 -18 -40 -19 -110 -11 -62 7 -365 8 -892 3 -85 -1
-106 -8 -125 -43 -16 -31 -17 -38 -2 -113 9 -43 19 -109 23 -146 10 -105 22
-114 171 -122 86 -6 128 -4 143 4 16 8 122 10 398 6 207 -3 397 -8 422 -12 39
-5 48 -2 69 20 16 16 25 41 28 73 2 26 15 68 28 93 17 33 24 64 25 120 4 106
4 106 -34 129 -42 26 -100 26 -144 -1z"/>
<path d="M44270 1620 c-34 -23 -52 -29 -75 -25 -16 3 -147 7 -289 10 -143 3
-262 7 -264 10 -3 2 -20 -2 -39 -10 -20 -8 -64 -15 -100 -15 -55 0 -67 -4 -88
-25 -14 -13 -25 -31 -25 -39 0 -15 -70 -76 -88 -76 -6 0 -29 -23 -53 -51 l-43
-51 -49 6 c-27 3 -61 13 -74 22 -24 15 -25 19 -18 78 10 83 9 96 -13 125 -22
29 54 25 -602 32 -361 3 -351 5 -393 -84 -39 -84 -79 -233 -72 -267 12 -56 24
-58 325 -59 151 0 410 -4 575 -7 245 -6 849 -7 995 -3 56 2 222 -18 258 -31
27 -10 37 -9 57 4 13 9 30 26 36 38 6 13 24 35 40 50 16 15 29 36 29 48 0 11
18 38 39 59 33 33 40 47 46 95 10 76 2 138 -21 169 -25 34 -39 33 -94 -3z"/>
<path d="M11655 1619 c-33 -16 -53 -18 -115 -13 -41 3 -213 6 -382 7 -288 2
-307 1 -327 -17 -13 -12 -21 -31 -21 -51 0 -21 -9 -40 -25 -55 -14 -13 -32
-48 -41 -76 -8 -29 -22 -58 -30 -65 -18 -15 -329 -18 -449 -5 -66 7 -87 14
-119 39 -31 25 -51 32 -100 35 -39 3 -68 11 -81 22 -34 30 -62 40 -113 40 -38
0 -55 -5 -76 -25 -14 -13 -26 -31 -26 -40 0 -9 -10 -37 -22 -63 -28 -62 -28
-109 -1 -132 20 -16 52 -17 320 -17 213 0 313 -4 349 -13 41 -10 61 -11 99 -1
29 7 154 14 313 17 252 4 265 3 292 -16 47 -33 81 -35 161 -6 65 23 86 26 217
26 80 0 161 -5 182 -11 35 -11 41 -9 91 23 52 34 55 38 85 124 28 84 29 92 18
152 -13 72 -28 92 -90 121 -52 25 -57 25 -109 0z"/>
<path d="M13587 1626 c-94 -34 -126 -98 -134 -266 -5 -101 -4 -123 10 -138 14
-16 50 -17 489 -15 260 1 477 2 481 2 14 1 38 70 32 94 -4 15 4 37 25 69 30
45 31 51 26 122 -6 81 -20 114 -51 122 -11 2 -195 6 -410 7 -214 2 -399 6
-410 10 -11 4 -37 0 -58 -7z"/>
<path d="M17205 1630 c-16 -4 -47 -12 -68 -17 -44 -9 -56 -27 -83 -121 -22
-78 -49 -102 -141 -130 -69 -20 -188 -28 -385 -24 -86 2 -87 2 -133 42 -26 23
-57 40 -70 40 -14 0 -44 13 -67 30 -38 26 -54 30 -140 36 -110 8 -128 1 -128
-50 0 -17 -9 -61 -21 -97 -19 -58 -20 -69 -8 -94 8 -17 26 -32 41 -36 16 -4
155 -6 310 -4 156 3 589 5 963 6 651 1 681 2 712 20 33 21 43 37 43 74 0 13
16 42 35 65 34 40 35 45 35 123 -1 50 -6 88 -13 98 -7 9 -35 24 -62 33 -43 15
-66 16 -192 7 -99 -8 -157 -8 -189 -1 -33 8 -63 7 -106 -1 -54 -11 -166 -9
-268 5 -19 3 -48 1 -65 -4z"/>
<path d="M18345 1627 c-47 -16 -54 -129 -18 -281 31 -133 -11 -126 798 -128
569 -1 903 -5 940 -12 36 -6 44 -4 78 24 48 40 49 70 3 116 -37 37 -60 42 -91
20 -12 -7 -63 -16 -123 -20 -81 -5 -110 -3 -140 10 -21 9 -50 13 -67 10 -26
-5 -37 0 -70 34 -27 28 -58 46 -104 61 -84 28 -101 42 -101 89 0 21 -8 47 -17
59 -18 22 -20 22 -541 24 -287 1 -533 -2 -547 -6z"/>
<path d="M20613 1628 c-51 -30 -110 -148 -124 -248 -5 -36 -11 -71 -14 -78 -2
-7 0 -23 5 -36 17 -47 50 -50 525 -48 434 2 439 3 462 24 16 15 23 33 23 58 0
21 9 57 19 81 14 30 21 72 23 131 4 126 11 123 -209 118 -98 -2 -198 -3 -223
-2 -25 1 -101 1 -170 0 -198 -3 -203 -3 -250 5 -30 5 -52 3 -67 -5z"/>
<path d="M22048 1627 c-44 -21 -68 -48 -68 -79 0 -17 -12 -44 -30 -67 -25 -31
-31 -48 -35 -104 -2 -37 -6 -71 -9 -76 -12 -19 15 -62 47 -76 40 -16 93 -18
512 -10 182 3 411 2 510 -3 99 -5 302 -6 452 -3 l271 6 27 25 c23 21 26 31 22
67 -2 24 -12 53 -20 67 l-16 23 -208 -5 c-386 -10 -435 -9 -465 11 -33 23 -52
76 -44 122 9 48 -10 83 -53 94 -20 6 -174 10 -343 10 -169 -1 -356 2 -415 5
-76 4 -116 2 -135 -7z"/>
<path d="M24207 1629 c-24 -14 -47 -62 -47 -98 0 -17 -11 -42 -25 -59 -32 -38
-47 -80 -39 -106 4 -11 8 -50 8 -85 l1 -65 48 -15 c41 -13 59 -13 125 -2 90
16 437 16 477 1 39 -15 113 -11 170 8 45 16 50 21 63 62 7 25 16 99 19 166 6
133 -4 189 -38 199 -11 4 -76 1 -143 -5 -114 -11 -195 -11 -496 4 -60 3 -112
0 -123 -5z"/>
<path d="M30285 1624 c-47 -18 -264 -20 -518 -5 -88 5 -175 5 -195 0 -23 -5
-49 -4 -70 2 -18 6 -44 8 -57 5 -30 -8 -58 -57 -50 -88 4 -15 -3 -34 -20 -57
-18 -25 -25 -47 -25 -78 0 -27 -9 -59 -22 -82 -14 -25 -19 -45 -15 -62 12 -49
38 -53 377 -61 173 -4 376 -9 450 -11 125 -5 137 -3 167 16 36 24 63 66 63 96
0 12 9 39 20 61 25 49 28 195 5 239 -22 44 -45 49 -110 25z"/>
<path d="M39446 1633 c-4 -5 -52 -8 -106 -8 -117 0 -149 -16 -165 -83 -6 -22
-19 -53 -31 -69 -23 -32 -64 -156 -64 -195 0 -14 9 -36 19 -49 l19 -24 259 0
c142 0 264 -4 271 -9 7 -4 41 0 77 9 58 14 68 14 101 0 52 -21 87 -19 144 11
60 31 75 53 59 87 -9 20 -7 32 12 68 19 38 22 58 20 139 -2 122 -9 130 -106
130 -49 0 -87 -6 -116 -19 -40 -17 -57 -18 -179 -10 -74 5 -148 14 -164 19
-35 12 -40 12 -50 3z"/>
<path d="M46990 1617 c-35 -24 -35 -24 -374 -25 -318 0 -341 -2 -365 -20 -14
-10 -27 -29 -29 -41 -2 -14 -22 -32 -58 -53 -42 -23 -60 -41 -79 -78 l-24 -48
-88 2 c-48 1 -94 5 -101 10 -17 10 -82 152 -82 177 0 51 -100 80 -208 59 -36
-6 -68 -6 -101 1 -34 7 -56 7 -77 -2 -18 -7 -86 -10 -184 -9 -161 3 -183 4
-312 16 l-76 7 -34 -34 c-42 -42 -64 -113 -73 -232 l-7 -87 38 -16 c22 -9 49
-25 62 -37 24 -23 -42 -21 972 -29 498 -4 940 1 958 11 20 11 157 9 247 -4 44
-6 54 -4 85 19 19 14 50 36 67 48 24 17 33 31 33 52 0 16 10 45 22 64 16 27
23 55 25 116 5 116 -4 129 -92 138 -39 3 -79 9 -90 12 -13 4 -33 -2 -55 -17z"/>
<path d="M12755 1620 c-99 -4 -274 -8 -388 -9 -267 -1 -275 -4 -310 -118 -92
-297 -85 -308 178 -291 156 9 626 5 707 -7 43 -6 50 -4 95 30 59 45 66 56 53
90 -15 40 -12 78 10 128 11 25 21 63 22 86 2 68 -22 83 -149 94 -21 2 -119 1
-218 -3z"/>
<path d="M27578 1621 c-70 -5 -91 -10 -107 -26 -59 -62 -100 -336 -57 -384 20
-22 65 -28 95 -12 10 6 207 12 446 14 429 5 429 5 447 27 13 16 18 39 18 85 0
34 7 79 15 98 18 43 20 126 4 161 -19 41 -63 49 -207 38 -81 -7 -165 -8 -232
-2 -113 10 -282 10 -422 1z"/>
<path d="M6224 1613 c-91 -3 -105 -6 -128 -28 -30 -28 -32 -47 -12 -210 19
-165 45 -202 134 -189 27 4 60 1 84 -7 35 -11 46 -11 87 5 40 16 78 18 311 16
146 -1 281 -5 300 -9 19 -4 57 -3 83 2 31 5 60 4 78 -2 30 -10 45 -7 97 23 36
21 49 46 54 104 3 29 12 60 21 70 18 20 47 121 47 163 0 23 -7 30 -45 45 -53
20 -25 19 -530 15 -214 -2 -410 -1 -435 1 -25 3 -91 3 -146 1z"/>
<path d="M7876 1610 c-48 -4 -62 -10 -82 -33 -13 -16 -24 -35 -24 -43 0 -8 -7
-26 -16 -40 -9 -13 -22 -55 -29 -92 -7 -37 -18 -81 -26 -99 -15 -38 -1 -75 35
-90 12 -5 231 -8 520 -7 422 2 505 0 537 -12 27 -12 49 -13 85 -7 27 5 67 5
88 1 24 -5 52 -4 72 2 18 6 121 13 230 16 226 5 256 13 287 76 38 78 -1 129
-101 133 -31 1 -72 6 -89 10 -20 4 -44 3 -61 -4 -15 -6 -108 -14 -212 -16
-102 -3 -200 -6 -217 -7 -46 -2 -83 20 -83 49 0 13 7 40 15 60 22 53 19 70
-16 89 -27 14 -86 16 -443 17 -226 1 -437 0 -470 -3z"/>
<path d="M30838 1613 c-20 -5 -38 -48 -36 -88 1 -44 -22 -146 -39 -174 -29
-45 -32 -77 -12 -109 20 -34 66 -62 101 -62 192 2 402 9 433 14 25 4 53 2 70
-5 39 -15 280 -20 325 -7 47 14 117 63 125 87 3 11 1 39 -6 64 -9 37 -8 58 5
109 22 87 21 133 -4 158 -25 25 -77 26 -103 3 -16 -15 -40 -18 -161 -18 -96 0
-151 -4 -173 -14 -35 -14 -65 -12 -158 14 -147 41 -141 40 -199 16 l-54 -22
-38 20 c-39 21 -45 22 -76 14z"/>
<path d="M34410 1605 c-23 -9 -58 -11 -101 -8 -61 5 -67 4 -83 -18 -21 -31
-20 -118 3 -229 l17 -85 72 -37 71 -37 452 -6 c249 -3 470 -10 491 -14 24 -6
53 -5 76 1 20 6 61 7 92 4 30 -4 172 -8 314 -8 l260 -2 19 26 c11 14 22 46 24
71 5 40 2 49 -21 72 -21 21 -33 26 -54 21 -127 -28 -357 -29 -432 -1 -19 8
-56 16 -81 20 -57 7 -77 28 -119 118 -18 37 -39 71 -49 76 -9 5 -194 9 -411 9
-378 0 -397 1 -440 21 -52 24 -54 24 -100 6z"/>
<path d="M2472 1594 c-24 -10 -89 -16 -235 -19 -140 -3 -214 -8 -241 -18 -28
-10 -49 -12 -75 -5 -37 10 -187 16 -426 19 -169 1 -321 -16 -351 -40 -48 -38
-57 -96 -25 -161 13 -28 17 -52 14 -84 -4 -35 -1 -51 16 -75 28 -39 74 -53
168 -50 43 1 104 -1 135 -6 46 -6 63 -4 83 9 22 15 70 17 408 18 252 0 398 -3
430 -11 43 -10 88 -9 155 5 28 6 82 88 82 126 0 19 17 47 55 89 62 69 75 110
51 157 -28 54 -165 80 -244 46z"/>
<path d="M3948 1605 c-4 -4 -103 -8 -220 -10 -271 -2 -266 0 -296 -122 -47
-194 -51 -239 -24 -269 18 -19 30 -20 198 -17 98 2 294 -2 434 -8 140 -7 271
-12 290 -13 33 -1 37 2 62 54 18 38 25 65 22 86 -4 23 1 41 20 69 22 32 26 49
26 109 0 39 -4 76 -8 82 -20 29 -74 36 -239 34 -93 -2 -188 1 -213 5 -25 4
-48 4 -52 0z"/>
<path d="M5035 1591 c-55 -22 -65 -30 -65 -50 0 -9 -17 -34 -39 -55 -36 -36
-39 -42 -45 -114 -3 -42 -8 -91 -12 -109 -5 -24 -1 -36 15 -52 19 -19 33 -21
169 -22 81 -1 254 -2 386 -4 l238 -2 48 38 c34 27 50 48 55 71 4 18 19 51 33
73 23 34 26 50 25 107 -3 133 -15 138 -293 132 -118 -3 -219 -5 -225 -5 -5 0
-64 2 -130 4 -95 3 -129 1 -160 -12z"/>
<path d="M49339 1606 c-3 -3 -167 -7 -364 -7 -312 -1 -364 -3 -409 -18 -40
-14 -52 -23 -54 -42 -2 -13 -14 -36 -27 -51 -13 -15 -31 -53 -40 -83 -12 -43
-22 -58 -41 -65 -14 -6 -105 -10 -202 -10 -145 1 -187 4 -230 19 -34 12 -69
16 -101 13 -47 -4 -51 -3 -99 43 -59 54 -120 75 -223 75 -77 0 -99 -16 -99
-72 0 -24 -9 -47 -29 -72 -62 -77 -49 -128 44 -173 30 -15 55 -30 55 -33 0 -3
-32 -19 -70 -37 -75 -35 -97 -59 -103 -113 -3 -19 -10 -57 -17 -83 -23 -89 4
-178 58 -192 52 -13 197 -35 235 -35 21 0 56 -9 78 -20 21 -11 70 -24 108 -29
38 -5 80 -16 93 -25 22 -15 60 -16 324 -13 339 4 399 12 459 60 40 32 41 32
173 37 l134 5 36 43 c30 34 48 45 95 57 73 19 86 27 181 125 l78 81 -7 72 -7
71 73 67 c69 63 73 69 71 106 -2 28 4 48 23 73 19 26 25 46 25 86 0 104 -30
135 -143 142 -40 2 -75 1 -78 -2z m-76 -428 c9 -5 17 -18 17 -29 0 -27 -56
-49 -123 -49 -28 0 -117 -2 -197 -4 -80 -2 -370 -7 -645 -11 -428 -7 -507 -6
-550 7 -27 8 -66 13 -86 11 -38 -5 -66 15 -56 40 7 18 206 30 279 17 82 -15
172 -14 448 5 166 11 326 15 460 12 113 -2 214 -1 225 4 27 10 206 9 228 -3z"/>
<path d="M50730 1601 c-9 -6 -100 -8 -236 -5 -308 7 -314 4 -319 -171 -1 -49
-6 -116 -10 -147 -7 -55 -7 -58 24 -89 31 -31 34 -31 89 -24 79 11 664 13 737
3 33 -5 74 -11 90 -14 23 -4 35 0 54 20 20 21 26 41 31 108 4 46 13 97 20 113
6 17 12 59 12 94 0 56 -3 66 -23 82 -35 26 -88 37 -129 26 -32 -8 -161 -5
-275 8 -27 3 -57 1 -65 -4z"/>
<path d="M32863 1584 c-16 -11 -26 -55 -43 -189 -5 -44 -12 -96 -16 -116 -5
-29 -1 -41 19 -65 22 -25 33 -29 79 -30 29 0 67 -7 85 -14 25 -11 41 -11 85
-1 57 13 541 10 649 -4 53 -7 57 -6 77 20 14 18 22 42 22 66 0 21 5 82 11 136
14 120 2 178 -37 194 -14 5 -30 6 -35 3 -16 -9 -452 -11 -594 -3 -227 14 -287
15 -302 3z"/>
<path d="M53262 1574 c-11 -7 -27 -32 -36 -55 -14 -34 -15 -51 -7 -88 6 -25
13 -76 15 -114 9 -124 28 -163 88 -186 15 -5 94 -11 176 -12 123 -1 158 2 197
16 42 17 52 17 98 5 29 -8 79 -15 112 -16 158 -5 265 -26 265 -54 0 -5 -12
-16 -27 -24 -20 -10 -33 -11 -50 -3 -17 7 -37 7 -71 -2 -26 -7 -57 -15 -70
-18 -13 -3 -41 2 -63 12 -34 16 -47 17 -87 7 -30 -7 -114 -10 -233 -7 -215 5
-245 -3 -266 -65 -22 -63 -16 -101 22 -149 27 -34 35 -53 35 -86 0 -33 7 -50
35 -82 49 -57 85 -67 230 -64 286 6 669 -4 715 -18 19 -6 43 -8 53 -5 49 15
65 165 24 225 -12 19 -28 52 -35 75 -6 22 -23 51 -37 64 -14 13 -25 33 -25 45
0 26 -22 47 -70 65 -60 23 -62 28 -35 68 29 42 32 102 14 210 -9 53 -19 73
-49 106 -20 23 -49 60 -64 84 -39 62 -62 70 -130 42 -47 -20 -61 -22 -93 -13
-22 6 -136 11 -268 11 -202 1 -237 3 -287 21 -48 17 -59 17 -76 5z"/>
<path d="M52200 1559 c-43 -19 -66 -67 -73 -150 -4 -37 -14 -68 -31 -93 -34
-51 -42 -96 -22 -134 22 -42 53 -47 249 -33 307 21 427 15 427 -21 0 -4 14
-15 31 -23 28 -15 33 -15 63 3 21 12 52 20 82 20 76 0 117 22 142 76 12 25 22
63 22 84 0 30 8 48 36 80 41 48 58 96 44 122 -27 50 -152 87 -255 76 -93 -10
-478 -8 -507 3 -38 14 -167 8 -208 -10z"/>
<path d="M55736 1565 c-11 -8 -36 -15 -55 -15 -20 0 -53 -5 -74 -11 -52 -14
-439 -14 -560 1 -137 16 -155 3 -178 -130 -6 -30 -19 -67 -29 -82 -26 -36 -44
-148 -29 -181 18 -40 77 -61 146 -52 32 4 229 9 437 11 418 5 405 3 425 68 13
40 34 206 35 273 1 43 -4 57 -30 90 -34 42 -59 50 -88 28z"/>
<path d="M56303 1538 c-49 -60 -89 -208 -85 -312 5 -129 29 -142 246 -127 83
6 239 8 346 5 107 -3 254 -5 325 -4 72 0 234 2 360 3 148 2 244 -1 270 -8 22
-6 71 -11 109 -11 93 1 105 17 108 139 3 84 2 90 -22 109 -17 14 -33 18 -55
14 -16 -3 -162 -7 -323 -8 -233 -2 -295 0 -301 11 -5 7 -6 44 -3 82 7 104 0
109 -147 104 -64 -2 -128 -7 -143 -11 -19 -4 -37 -1 -54 11 -28 18 -41 18
-185 -5 -72 -11 -226 -5 -390 16 -31 4 -48 2 -56 -8z"/>
<path d="M59270 1509 c-53 -37 -55 -40 -76 -104 -20 -59 -43 -79 -111 -100
-68 -20 -260 -20 -327 0 -27 8 -72 15 -100 15 -66 0 -118 15 -141 40 -11 13
-31 20 -52 20 -27 0 -44 10 -81 46 -46 45 -47 46 -101 42 -72 -6 -95 -32 -85
-95 5 -35 1 -55 -20 -104 -42 -92 -44 -123 -10 -154 l27 -25 161 7 c89 4 222
6 296 5 74 -1 160 -2 190 -2 374 1 898 2 1065 2 127 0 218 4 230 10 25 14 51
46 66 80 6 15 26 36 45 47 28 17 34 26 34 54 0 19 7 56 15 83 13 44 13 52 -3
84 -9 19 -33 45 -52 58 -33 22 -41 23 -130 18 -134 -9 -479 -10 -650 -2 l-145
7 -45 -32z"/>
<path d="M9734 1120 c-24 -9 -40 -48 -50 -120 -3 -25 -15 -64 -25 -87 -23 -47
-20 -73 18 -151 33 -68 54 -82 123 -82 82 -1 221 -24 250 -42 16 -10 59 -18
115 -22 50 -3 124 -9 165 -13 41 -3 115 -6 164 -4 49 1 104 -3 122 -9 27 -9
43 -8 77 4 67 24 228 41 254 27 34 -18 70 -13 99 14 15 14 37 27 48 29 12 3
73 14 135 25 l115 20 51 56 c40 43 58 55 82 55 36 0 60 24 69 69 4 18 17 40
31 49 70 50 103 85 103 112 0 39 -28 59 -96 66 -66 8 -71 8 -204 -1 -120 -7
-120 -7 -275 -2 -106 3 -135 1 -158 -12 -25 -14 -31 -14 -76 2 -56 20 -94 22
-123 6 -15 -8 -31 -8 -59 0 -32 10 -44 9 -69 -4 -41 -21 -430 -21 -472 1 -30
16 -75 18 -110 6 -23 -8 -240 1 -268 11 -8 3 -25 2 -36 -3z"/>
<path d="M12892 1120 c-12 -5 -73 -10 -135 -10 -61 0 -132 0 -157 0 -321 -2
-484 -1 -526 5 -47 6 -53 5 -68 -16 -10 -15 -16 -44 -16 -82 0 -31 -7 -74 -15
-94 -8 -19 -15 -52 -15 -73 0 -28 -7 -43 -30 -64 -43 -38 -55 -72 -35 -102 8
-13 23 -24 32 -24 9 0 27 -10 41 -22 32 -31 101 -32 134 -2 35 31 55 35 96 18
20 -8 55 -17 77 -19 22 -2 64 -7 92 -11 41 -5 58 -3 77 10 31 20 75 20 100 1
25 -19 95 -19 120 0 28 21 73 19 103 -5 34 -26 55 -25 91 5 17 14 46 32 64 40
19 7 39 20 45 27 13 17 33 160 38 278 4 79 1 99 -13 117 -20 26 -67 37 -100
23z"/>
<path d="M18473 1119 c-35 -45 -23 -88 35 -118 21 -11 52 -42 72 -71 48 -72
96 -118 152 -146 27 -14 54 -36 62 -53 19 -36 33 -41 109 -41 34 0 80 -5 102
-11 22 -6 114 -14 205 -20 91 -5 201 -14 245 -19 159 -21 182 -22 207 -8 15 8
68 13 158 15 74 1 141 2 149 2 26 2 81 68 81 98 0 16 15 49 36 78 26 37 34 57
30 77 -3 14 -1 41 5 60 17 57 13 108 -9 130 -19 20 -34 20 -758 23 -407 1
-768 6 -804 10 -51 6 -68 4 -77 -6z"/>
<path d="M20647 1124 c-4 -4 -42 -7 -86 -6 -99 3 -106 -4 -107 -107 0 -48 -6
-89 -16 -111 -9 -19 -20 -46 -24 -60 -4 -14 -17 -41 -30 -60 -26 -38 -31 -72
-11 -87 6 -5 37 -17 68 -27 46 -14 64 -15 109 -5 34 7 95 9 169 5 64 -4 231
-7 371 -8 331 -1 339 2 361 130 5 31 14 106 18 167 13 156 -8 187 -112 163
-43 -9 -593 -3 -662 8 -22 3 -43 2 -48 -2z"/>
<path d="M26365 1116 c-18 -6 -207 -10 -474 -10 l-444 -1 -20 -27 c-18 -25
-19 -32 -8 -110 7 -45 17 -99 22 -119 5 -20 9 -55 9 -79 0 -39 24 -109 39
-111 3 -1 209 -3 458 -5 545 -3 495 -17 511 143 25 236 25 267 3 295 -24 30
-55 38 -96 24z"/>
<path d="M35873 1104 c-40 -24 -46 -25 -97 -14 -31 6 -61 8 -66 5 -6 -4 -257
-9 -558 -12 -536 -4 -548 -4 -600 16 -68 27 -97 27 -116 -1 -21 -30 -20 -107
2 -139 32 -47 87 -101 128 -125 22 -13 55 -44 73 -69 24 -33 39 -45 58 -45 14
0 40 -9 57 -19 20 -12 61 -21 113 -26 70 -6 86 -11 109 -33 21 -21 36 -27 73
-27 28 0 56 -7 73 -18 22 -16 38 -17 110 -11 68 5 90 3 116 -10 22 -11 44 -14
71 -10 27 4 54 1 81 -10 61 -24 101 -21 145 14 33 26 46 30 100 30 79 0 151
22 196 59 31 26 37 38 41 81 4 39 12 59 35 83 28 30 31 39 36 126 l6 93 -43
44 c-52 52 -80 56 -143 18z"/>
<path d="M39839 1117 c-28 -10 -83 -15 -284 -22 -134 -5 -290 3 -412 21 -37 5
-43 3 -59 -20 -13 -21 -16 -40 -11 -90 5 -56 3 -67 -19 -99 -13 -20 -24 -46
-24 -59 0 -13 -6 -33 -13 -44 -50 -87 -49 -84 -33 -109 24 -36 114 -60 171
-46 27 7 165 11 364 11 418 0 402 -5 416 140 13 135 12 264 -1 291 -15 30 -57
41 -95 26z"/>
<path d="M41412 1119 c-13 -5 -230 -11 -481 -13 -475 -4 -489 -5 -511 -47 -16
-28 -1 -184 21 -234 10 -22 19 -57 19 -77 0 -69 77 -110 169 -89 29 7 127 9
261 5 239 -5 467 -5 490 1 8 2 34 9 56 14 48 13 59 33 68 121 6 59 21 168 32
237 6 36 3 45 -19 67 -27 27 -63 32 -105 15z"/>
<path d="M43720 1113 c-42 -14 -296 -18 -995 -13 -33 0 -107 0 -165 1 -58 0
-124 4 -148 10 -33 7 -56 5 -97 -6 -47 -14 -57 -14 -82 -2 -20 10 -57 14 -128
12 -123 -3 -135 -13 -135 -111 0 -54 -3 -66 -25 -86 -16 -15 -34 -53 -50 -107
-38 -127 -21 -143 155 -146 336 -7 1059 -7 1069 -1 7 4 82 9 168 11 86 2 177
8 202 14 25 5 72 14 103 20 38 6 71 20 95 40 21 16 51 33 68 37 109 27 281
155 305 228 24 72 -27 120 -103 97 -78 -23 -93 -23 -133 -2 -44 24 -44 24
-104 4z"/>
<path d="M46797 1120 c-16 -5 -35 -14 -42 -20 -10 -8 -82 -12 -232 -12 -120 0
-294 0 -388 -1 -188 0 -176 0 -575 1 -474 1 -562 4 -617 19 -94 26 -130 -7
-118 -107 7 -60 44 -127 86 -157 9 -7 36 -30 59 -50 69 -63 227 -123 322 -123
53 0 61 -3 95 -35 31 -29 45 -35 83 -36 25 0 97 -5 160 -10 63 -6 124 -10 135
-9 259 7 447 31 610 75 28 7 82 16 120 20 121 12 196 35 230 71 16 18 58 47
92 64 50 24 67 39 83 71 16 31 34 46 78 67 61 30 87 64 77 104 -8 33 -40 50
-105 59 -30 4 -71 10 -90 13 -19 3 -48 1 -63 -4z"/>
<path d="M5550 1104 c-29 -13 -86 -15 -353 -13 -282 2 -320 1 -334 -14 -10
-10 -19 -45 -25 -94 -5 -43 -11 -100 -14 -127 -4 -32 -17 -63 -35 -89 -40 -55
-38 -79 13 -119 35 -28 49 -33 88 -31 57 3 419 5 570 3 63 -1 123 -1 132 -1
26 1 40 36 49 119 5 41 16 86 25 100 22 33 36 162 23 201 -10 27 -73 81 -95
81 -5 -1 -25 -8 -44 -16z"/>
<path d="M6992 1106 c-24 -8 -95 -10 -235 -7 -111 2 -227 3 -257 2 -30 -1
-108 -1 -173 -1 -113 1 -118 0 -143 -25 -19 -19 -25 -33 -21 -53 19 -102 32
-152 48 -183 10 -19 25 -61 33 -91 18 -70 39 -103 74 -117 40 -17 799 -8 833
9 54 28 69 51 69 104 0 28 5 69 10 90 5 22 12 82 15 135 7 87 5 98 -13 121
-18 22 -27 24 -113 26 -53 1 -109 -3 -127 -10z"/>
<path d="M7716 1098 c-26 -23 -31 -43 -54 -238 -5 -37 -16 -67 -35 -91 -31
-41 -34 -65 -12 -96 32 -45 75 -50 425 -44 179 3 350 4 380 4 59 -1 242 -2
325 -2 28 0 102 -2 165 -4 87 -4 120 -1 137 9 29 18 63 18 90 -1 17 -12 45
-15 119 -13 92 3 98 4 117 30 14 18 22 50 27 105 4 43 14 94 22 113 9 19 26
66 38 104 22 68 22 68 3 95 -33 44 -60 53 -138 46 -38 -4 -230 -7 -425 -6
-195 0 -373 0 -395 -1 -238 -3 -617 -1 -682 5 -76 7 -83 6 -107 -15z"/>
<path d="M14010 1110 c-19 -5 -149 -7 -288 -4 -218 4 -255 2 -276 -11 -25 -17
-56 -80 -56 -116 0 -12 -13 -37 -30 -56 -23 -26 -30 -43 -30 -74 0 -29 -7 -50
-26 -71 -38 -46 -30 -85 21 -112 35 -18 60 -20 249 -23 126 -1 214 -7 220 -13
15 -15 83 -12 115 4 34 18 215 16 233 -2 19 -19 87 -14 119 8 15 12 43 26 61
32 49 16 56 24 63 81 4 29 15 70 26 93 11 23 25 78 31 123 11 70 10 86 -3 109
l-15 27 -159 1 c-88 1 -173 4 -190 7 -16 3 -46 2 -65 -3z"/>
<path d="M15961 1101 c-6 -10 -13 -49 -15 -86 -3 -37 -6 -69 -8 -70 -2 -1 -22
-14 -45 -29 -40 -24 -43 -29 -43 -71 0 -33 6 -50 22 -65 12 -11 25 -20 28 -20
4 0 25 -18 48 -40 l40 -40 84 0 c46 0 124 -7 173 -16 50 -9 124 -19 165 -23
42 -4 81 -11 88 -15 7 -4 55 -12 107 -16 76 -8 104 -6 147 7 53 16 92 19 361
27 98 3 153 9 163 17 8 7 57 16 109 19 69 6 103 13 128 29 19 11 42 21 50 21
9 0 39 20 66 44 27 24 64 47 83 51 64 14 105 42 127 88 12 24 21 51 21 60 0 9
12 24 28 34 48 31 55 60 23 92 -19 19 -33 20 -533 14 -282 -3 -589 -7 -683 -8
-93 0 -190 -4 -215 -9 -32 -5 -58 -3 -89 9 -45 16 -83 15 -206 -6 -49 -8 -67
-7 -97 5 -53 23 -115 21 -127 -3z"/>
<path d="M21904 1109 c-11 -4 -25 -14 -32 -22 -14 -17 -31 -187 -24 -237 4
-27 -2 -37 -37 -71 -22 -22 -41 -47 -41 -55 0 -29 20 -52 52 -60 18 -4 394 -7
835 -5 575 2 813 -1 843 -9 24 -6 53 -9 66 -6 28 7 54 53 54 95 0 17 7 52 16
78 9 26 16 67 15 90 0 24 3 62 9 86 12 57 4 85 -33 103 -28 15 -170 18 -552
11 -22 -1 -134 0 -250 0 -115 1 -232 2 -260 1 -27 0 -183 2 -346 4 -162 3
-304 1 -315 -3z"/>
<path d="M24073 1106 c-17 -8 -36 -23 -42 -34 -14 -27 -53 -339 -45 -365 4
-11 16 -29 28 -38 19 -16 56 -17 401 -18 326 0 385 3 413 16 38 18 52 46 52
103 0 21 5 51 11 67 7 15 13 53 14 83 1 30 6 76 10 101 7 43 5 47 -22 67 -22
15 -46 21 -94 22 -88 3 -358 3 -389 1 -68 -4 -222 -3 -261 2 -28 4 -55 1 -76
-7z"/>
<path d="M28177 1103 c-34 -14 -61 -15 -200 -6 -89 6 -244 11 -343 12 -215 3
-236 -3 -254 -72 -6 -23 -16 -58 -21 -78 -5 -20 -17 -44 -28 -53 -12 -11 -25
-48 -36 -107 -17 -89 -17 -91 2 -117 17 -22 32 -28 84 -35 38 -5 84 -5 114 1
29 6 191 9 390 7 323 -3 343 -2 392 18 55 22 73 48 73 108 0 15 5 40 11 56 34
86 48 198 29 233 -19 36 -155 57 -213 33z"/>
<path d="M30116 1105 c-16 -8 -45 -15 -65 -15 -20 0 -112 -2 -205 -4 -131 -4
-183 -2 -235 10 -51 12 -92 14 -181 9 -112 -7 -115 -8 -147 -40 -27 -27 -33
-41 -33 -74 0 -23 -7 -56 -17 -74 -10 -21 -18 -66 -21 -127 -4 -85 -2 -98 16
-120 l20 -25 249 3 c215 3 252 1 281 -13 30 -15 36 -15 83 0 32 11 64 15 87
11 97 -16 145 -18 186 -6 61 17 82 43 90 113 3 32 15 75 25 95 24 47 38 181
21 211 -15 29 -68 61 -100 61 -14 0 -38 -7 -54 -15z"/>
<path d="M38379 1103 c-34 -11 -106 -14 -304 -12 -410 4 -429 3 -460 -24 -18
-15 -28 -36 -32 -67 -4 -32 -16 -56 -40 -83 -26 -29 -32 -43 -27 -62 4 -16 -2
-44 -15 -75 -27 -62 -26 -75 4 -106 21 -21 31 -24 77 -19 103 10 583 13 607 3
17 -6 42 -5 74 3 38 9 62 9 108 -1 54 -12 62 -11 111 10 64 27 68 32 68 90 0
26 7 56 16 69 18 25 44 144 44 199 0 18 -7 46 -15 62 -14 28 -16 28 -93 27
-44 0 -99 -7 -123 -14z"/>
<path d="M30955 1090 c-33 -3 -96 -4 -141 -2 -76 4 -82 3 -98 -19 -9 -13 -16
-40 -16 -60 0 -20 -7 -56 -15 -79 -18 -51 -20 -237 -3 -274 14 -32 40 -41 69
-25 29 15 442 14 498 -1 27 -7 48 -7 66 0 14 5 91 10 169 10 175 0 177 1 187
121 4 45 14 90 23 104 22 33 22 157 0 190 -24 37 -63 46 -133 29 -43 -10 -74
-11 -109 -4 -29 5 -64 5 -88 0 -64 -15 -220 -12 -261 5 -37 16 -51 16 -148 5z"/>
<path d="M50193 1081 c-33 -20 -83 -86 -83 -109 0 -7 -12 -30 -26 -52 -18 -27
-24 -45 -19 -60 4 -13 -2 -55 -16 -100 -19 -67 -20 -83 -10 -108 7 -17 20 -32
29 -34 9 -3 62 -1 117 4 128 11 662 9 693 -3 49 -19 109 -10 184 28 40 20 95
44 122 53 29 11 54 27 61 41 7 13 41 40 76 61 98 57 128 81 129 101 0 11 16
48 36 84 19 35 34 74 32 86 -4 32 -41 33 -93 2 -25 -14 -50 -23 -55 -20 -19
12 -47 -15 -68 -63 -12 -27 -27 -54 -34 -60 -20 -16 -65 -25 -94 -18 -24 6
-25 9 -19 61 8 61 -8 99 -48 114 -12 5 -76 4 -142 0 -339 -25 -570 -26 -644
-3 -62 19 -90 17 -128 -5z"/>
<path d="M1222 1066 c-18 -13 -36 -26 -39 -29 -3 -4 -7 -45 -9 -93 -2 -71 1
-95 17 -132 15 -31 19 -55 14 -79 -4 -25 0 -44 16 -73 13 -22 25 -40 28 -41 3
0 223 -2 489 -3 l483 -2 30 22 c17 12 45 28 62 35 47 18 67 39 67 70 0 15 11
40 24 56 37 45 43 63 50 151 11 127 -17 153 -126 120 -33 -10 -47 -9 -87 6
-45 16 -52 16 -87 1 -58 -24 -585 -22 -631 2 -29 15 -37 16 -65 4 -53 -22 -93
-24 -126 -7 -42 22 -71 19 -110 -8z"/>
<path d="M3406 1071 c-11 -13 -21 -42 -24 -73 -3 -36 -13 -62 -28 -81 -16 -19
-24 -41 -24 -66 0 -29 -7 -44 -35 -71 -27 -27 -35 -42 -35 -70 0 -38 14 -56
58 -79 27 -14 29 -14 524 -13 l376 1 52 43 c43 36 56 54 77 113 31 87 46 225
29 275 l-11 35 -115 -1 c-63 0 -239 -2 -390 -4 -151 -2 -311 0 -355 4 -74 7
-82 6 -99 -13z"/>
<path d="M33619 1086 c-8 -8 -443 -20 -574 -16 -256 7 -236 9 -262 -29 -13
-19 -23 -48 -23 -66 0 -18 -11 -46 -25 -65 -14 -19 -25 -41 -25 -49 0 -9 -11
-36 -25 -60 -17 -29 -25 -58 -25 -91 0 -44 3 -50 34 -70 34 -20 42 -21 468
-19 l433 1 49 32 c27 17 54 34 59 38 6 3 11 29 13 56 1 33 9 60 24 79 17 24
22 48 26 121 5 88 4 93 -20 117 -20 20 -35 25 -74 25 -27 0 -51 -2 -53 -4z"/>
<path d="M52710 1048 c-242 -10 -225 -10 -452 -5 -237 5 -225 11 -252 -133 -9
-52 -22 -114 -27 -137 -12 -57 -11 -103 4 -133 12 -24 17 -25 122 -28 61 -1
124 -3 140 -4 17 -1 75 0 130 1 128 3 401 -8 484 -19 100 -14 114 0 127 131 4
40 15 92 25 114 27 58 26 158 -1 185 -25 25 -64 41 -93 38 -12 -1 -105 -5
-207 -10z"/>
<path d="M59894 1029 c-28 -22 -44 -28 -59 -23 -11 5 -78 7 -150 6 -558 -10
-1236 -11 -1287 -1 -52 10 -184 1 -251 -18 -24 -6 -53 -67 -61 -128 -4 -27
-14 -69 -22 -92 -7 -23 -11 -49 -8 -56 8 -23 51 -37 131 -44 60 -5 82 -12 114
-35 21 -15 49 -28 61 -28 13 0 38 -10 57 -23 66 -43 76 -47 123 -47 26 0 59
-5 75 -11 43 -18 546 -20 598 -2 22 7 76 16 120 20 69 5 85 10 113 34 28 25
41 29 94 29 56 0 65 3 94 31 24 23 45 32 85 38 40 5 67 17 104 46 28 21 66 44
85 53 44 18 103 60 158 110 33 32 42 47 42 73 0 48 -10 59 -71 80 -73 26 -100
24 -145 -12z"/>
<path d="M55580 1028 c-40 -19 -55 -20 -165 -14 -66 4 -127 7 -135 8 -8 0
-123 0 -256 -1 -194 -2 -245 -5 -262 -17 -26 -18 -42 -72 -42 -140 0 -28 -7
-69 -16 -90 -11 -27 -15 -59 -12 -107 3 -61 7 -72 31 -93 28 -23 29 -24 60 -6
28 15 67 17 297 20 245 2 274 0 390 -22 69 -13 137 -22 153 -19 33 7 67 47 67
80 0 13 7 40 15 60 8 19 15 45 15 57 0 11 14 46 30 75 58 105 50 162 -26 205
-56 31 -84 32 -144 4z"/>
<path d="M56852 1008 c-40 -18 -50 -18 -132 -7 -66 9 -112 10 -180 2 -52 -6
-109 -7 -133 -2 -62 12 -152 11 -182 -3 -51 -23 -76 -106 -92 -305 -9 -119 25
-166 105 -144 19 6 54 8 78 4 31 -4 50 -1 68 11 29 18 70 21 112 6 17 -6 47
-7 74 -2 26 5 59 4 78 -2 25 -7 44 -6 80 7 42 16 86 17 442 11 217 -4 427 -7
465 -8 39 -1 80 -7 92 -13 32 -19 87 -16 106 5 10 10 17 31 17 46 0 17 11 39
30 58 26 25 30 37 30 82 0 40 6 60 26 87 21 28 25 42 21 77 -6 54 -27 77 -88
97 -43 14 -59 15 -118 5 -37 -7 -83 -10 -102 -8 -18 3 -152 2 -298 -2 -145 -4
-276 -4 -290 0 -14 5 -57 10 -96 13 -55 3 -79 0 -113 -15z"/>
</g>
</svg>
